<?xml version="1.0" standalone="no"?>
<!DOCTYPE svg PUBLIC "-//W3C//DTD SVG 20010904//EN"
 "http://www.w3.org/TR/2001/REC-SVG-20010904/DTD/svg10.dtd">
<svg version="1.0" xmlns="http://www.w3.org/2000/svg"
 width="905.000000pt" height="585.000000pt" viewBox="0 0 905.000000 585.000000"
 preserveAspectRatio="xMidYMid meet">

<g transform="translate(0.000000,585.000000) scale(0.100000,-0.100000)"
fill="#000000" stroke="none">
<path d="M4095 5810 c-18 -7 -17 -9 13 -20 17 -7 32 -16 32 -21 0 -12 -17 -11
-25 1 -9 15 -27 12 -19 -2 6 -10 4 -10 -7 0 -8 7 -40 12 -80 12 -37 0 -71 5
-74 10 -3 6 -18 7 -32 4 -20 -5 -24 -4 -18 6 6 10 4 11 -11 5 -19 -8 -42 -12
-79 -15 l-20 -1 20 -10 c16 -7 14 -9 -12 -6 -19 2 -29 -1 -26 -6 4 -6 -3 -8
-15 -5 -23 6 -96 -15 -86 -25 3 -3 13 -3 22 -1 15 5 14 4 0 -6 -13 -8 -24 -8
-40 1 -22 12 -22 11 -5 -8 9 -11 17 -24 17 -29 0 -5 -5 -2 -10 6 -9 13 -11 13
-20 0 -8 -12 -13 -13 -30 -2 -17 10 -26 9 -57 -8 -30 -16 -33 -20 -16 -20 12
0 29 7 38 16 15 16 18 16 33 0 15 -15 15 -16 1 -11 -9 3 -33 -4 -54 -17 -22
-12 -36 -17 -32 -11 4 6 0 14 -9 17 -10 4 -13 2 -8 -6 5 -8 2 -9 -10 -5 -10 4
-15 3 -11 -3 3 -6 -1 -10 -10 -10 -10 0 -13 -5 -9 -12 6 -10 4 -10 -8 0 -13
10 -19 10 -31 -3 -9 -8 -26 -19 -39 -24 l-23 -10 23 0 c13 -1 33 9 43 22 l20
22 -11 -22 c-6 -13 -9 -23 -8 -24 24 -7 108 -6 103 1 -3 6 -17 10 -31 10 -21
0 -23 2 -12 14 9 10 17 11 25 4 7 -6 20 -8 28 -4 8 3 25 1 37 -4 13 -5 18 -9
11 -9 -7 -1 -10 -7 -7 -15 7 -17 -36 -25 -77 -15 -37 10 -81 0 -75 -17 3 -8 0
-11 -11 -7 -8 3 -19 0 -24 -8 -7 -11 -9 -11 -9 4 0 9 5 17 10 17 6 0 10 5 10
11 0 6 -7 8 -16 5 -9 -4 -23 -1 -30 5 -12 10 -13 8 -7 -6 5 -15 3 -17 -11 -12
-11 5 -15 3 -10 -5 5 -8 2 -9 -10 -5 -11 5 -15 3 -10 -5 5 -8 2 -9 -9 -5 -9 3
-19 1 -23 -5 -4 -6 -3 -8 4 -4 6 4 10 -1 9 -13 -1 -16 -5 -18 -20 -10 -21 12
-42 -1 -50 -31 -3 -12 1 -21 12 -25 23 -7 57 -65 39 -65 -8 0 -21 8 -30 18
-38 40 -46 43 -60 24 -13 -19 -62 -37 -87 -33 -7 1 -10 -2 -6 -8 3 -6 1 -11
-5 -11 -6 0 -18 -7 -26 -15 -13 -12 -13 -15 -2 -15 8 0 19 5 26 12 9 9 12 8
12 -4 0 -9 -11 -19 -24 -22 -13 -3 -32 -9 -43 -12 -14 -5 -15 -4 -3 5 8 5 12
12 9 15 -3 3 -16 -5 -28 -18 -19 -20 -20 -24 -6 -30 11 -4 14 -2 10 7 -4 6 3
1 15 -12 29 -33 12 -49 -32 -28 -40 19 -54 12 -34 -18 14 -21 13 -24 -10 -44
-15 -13 -23 -29 -20 -37 3 -8 -1 -14 -10 -14 -9 0 -14 6 -12 12 5 14 -15 38
-30 38 -14 0 -42 -35 -42 -54 0 -10 6 -16 17 -14 10 2 19 -4 21 -14 2 -11 -3
-18 -11 -18 -8 0 -20 -7 -28 -16 -10 -13 -10 -17 2 -25 11 -7 9 -9 -8 -9 -12
0 -25 5 -29 12 -5 7 -3 8 6 3 9 -5 11 -4 6 4 -4 6 -2 20 5 29 11 13 8 12 -9
-2 -26 -22 -30 -11 -5 16 21 24 12 23 -16 -1 -14 -12 -19 -25 -15 -37 5 -15 4
-16 -5 -4 -8 12 -11 12 -17 -4 -4 -10 -2 -27 5 -37 9 -15 8 -19 -4 -19 -8 0
-15 7 -15 15 0 20 -13 19 -33 -3 -19 -20 -12 -66 8 -58 8 3 16 -2 19 -10 8
-22 8 -24 -8 -18 -7 3 -16 -2 -19 -10 -4 -9 -12 -16 -19 -16 -9 0 -9 3 0 12
17 17 15 33 -3 18 -13 -11 -14 -8 -11 16 2 16 1 23 -1 17 -2 -7 -9 -13 -14
-13 -5 0 -9 -7 -9 -16 0 -8 -4 -12 -10 -9 -15 10 -12 -2 6 -20 9 -9 14 -19 10
-22 -3 -4 -13 2 -21 13 -11 14 -15 15 -14 4 3 -32 -2 -56 -16 -74 -21 -28 -31
-11 -11 19 10 15 16 31 13 38 -2 6 -10 -3 -17 -20 -8 -17 -18 -29 -22 -27 -4
3 -5 -2 -2 -10 3 -8 -3 -26 -13 -40 -27 -37 -38 -31 -12 7 l22 32 -26 -27
c-18 -18 -25 -33 -20 -44 5 -14 3 -16 -13 -10 -14 5 -16 4 -8 -4 9 -9 17 -9
33 0 23 12 41 6 41 -13 0 -8 -3 -7 -9 2 -7 11 -11 10 -19 -6 -7 -12 -7 -24 -2
-29 6 -6 5 -15 0 -24 -8 -12 -10 -10 -10 8 0 12 -4 22 -9 22 -5 0 -16 7 -24
15 -13 13 -18 10 -42 -21 -19 -25 -24 -38 -16 -43 8 -5 6 -14 -8 -30 -11 -12
-17 -30 -15 -39 5 -15 4 -14 -6 1 -6 9 -8 22 -5 27 3 6 4 10 1 10 -3 0 -13
-15 -21 -32 -12 -25 -12 -29 -2 -15 13 15 15 16 21 2 3 -8 2 -15 -3 -15 -4 0
-6 -12 -3 -26 3 -17 7 -22 12 -13 5 7 6 18 3 26 -3 7 -1 13 3 14 5 0 16 2 24
4 39 11 53 9 55 -7 2 -10 -6 -19 -19 -22 -11 -3 -33 -17 -48 -30 l-27 -25 -6
29 c-4 17 -11 28 -16 24 -5 -3 -7 -15 -4 -27 5 -17 4 -19 -4 -7 -9 13 -12 12
-25 -5 -8 -11 -17 -18 -20 -15 -3 3 6 19 19 34 14 16 25 32 25 35 -1 3 -13 -9
-29 -27 -18 -21 -27 -41 -24 -55 3 -14 -2 -29 -11 -36 -18 -15 -22 -2 -6 17 5
7 3 6 -6 -1 -8 -8 -16 -21 -18 -30 -1 -9 -11 -27 -23 -39 -11 -13 -27 -37 -35
-55 -14 -27 -14 -34 -2 -52 9 -12 11 -22 4 -26 -5 -3 -10 1 -10 9 0 8 -4 17
-8 20 -5 3 -9 -8 -9 -24 0 -36 -11 -50 -23 -30 -6 9 -8 2 -6 -23 2 -20 9 -44
16 -52 9 -11 10 -19 3 -26 -7 -7 -12 0 -16 21 -6 28 -9 30 -27 20 -15 -8 -19
-17 -15 -33 5 -16 4 -18 -3 -8 -8 11 -11 9 -17 -10 -4 -13 -16 -35 -27 -48
-11 -15 -16 -32 -12 -44 4 -13 2 -17 -5 -13 -8 5 -8 0 -1 -19 12 -33 12 -35 0
-35 -5 0 -10 8 -10 18 -1 9 -7 2 -15 -17 -8 -18 -12 -44 -9 -56 8 -34 -5 -53
-22 -31 -11 16 -13 16 -18 -2 -4 -10 1 -38 9 -62 13 -37 13 -41 0 -30 -8 7
-15 18 -15 26 0 7 -5 16 -11 19 -5 4 -3 -10 7 -32 24 -56 28 -73 15 -73 -6 0
-14 14 -17 30 -7 31 -24 42 -24 15 0 -8 -4 -15 -10 -15 -5 0 -10 -5 -10 -11 0
-5 5 -7 11 -4 6 4 17 -1 24 -11 21 -28 18 -40 -5 -19 -11 10 -21 15 -21 12 -1
-4 -2 -11 -3 -16 -2 -16 -16 -25 -17 -10 0 8 -8 -6 -18 -31 -17 -43 -17 -46 1
-83 11 -22 21 -37 24 -34 6 5 -17 60 -29 68 -5 3 -1 9 8 13 11 4 15 13 11 28
-3 13 -3 17 0 10 3 -6 11 -9 16 -6 7 4 8 2 4 -5 -4 -6 -2 -19 6 -28 11 -14 11
-16 -3 -11 -9 4 -16 1 -16 -8 0 -7 4 -11 8 -9 4 3 6 -10 5 -27 -1 -18 2 -45 5
-60 6 -24 4 -28 -12 -28 -16 0 -20 6 -18 28 2 16 -5 40 -16 55 l-20 27 -1 -31
c-1 -20 2 -26 7 -17 7 10 9 10 9 0 0 -7 -7 -15 -15 -18 -15 -6 -10 -64 8 -75
5 -4 5 -9 -2 -13 -6 -4 -14 -1 -17 7 -2 7 -11 14 -19 14 -17 0 -20 -14 -4 -19
7 -2 7 -11 0 -28 l-10 -25 -1 25 -2 25 -8 -25 c-4 -14 -8 -34 -8 -45 l-1 -20
9 20 c7 17 9 14 11 -15 l2 -35 6 35 c6 33 7 34 14 10 4 -14 7 -37 7 -52 0 -21
-4 -26 -17 -21 -14 6 -16 -1 -10 -58 3 -35 3 -58 0 -51 -2 6 -11 12 -19 12
-17 0 -17 -3 -15 -96 1 -56 -2 -73 -14 -78 -8 -3 -15 -13 -15 -21 0 -9 5 -13
10 -10 6 3 10 1 10 -4 0 -6 5 -11 10 -11 6 0 10 15 10 34 0 19 5 38 10 41 6 4
10 -8 10 -29 0 -19 -5 -38 -10 -41 -6 -4 -8 -11 -4 -16 3 -5 1 -15 -4 -22 -5
-7 -12 -21 -15 -32 -3 -12 -5 -7 -6 15 -1 28 -4 32 -12 20 -9 -12 -10 -11 -6
8 3 12 0 22 -5 22 -6 0 -8 13 -4 33 5 24 3 28 -5 17 -8 -12 -10 -10 -5 10 3
14 6 32 6 40 0 13 1 13 10 0 7 -11 9 -1 8 34 0 31 -4 43 -9 35 -12 -19 -11 -2
2 44 5 20 14 37 20 37 6 0 8 -4 5 -8 -3 -5 0 -9 7 -9 16 0 21 87 7 119 -9 20
-10 18 -6 -14 6 -45 -2 -78 -19 -78 -15 0 -32 -64 -34 -130 -1 -24 -7 -47 -13
-51 -5 -4 -11 -21 -13 -38 -1 -17 -5 -34 -9 -38 -3 -3 -6 -16 -5 -27 1 -18 2
-18 9 4 7 23 8 23 9 3 1 -12 4 -30 7 -40 4 -13 3 -14 -3 -5 -7 9 -13 6 -21
-13 -13 -29 -5 -57 9 -34 6 10 9 8 9 -8 0 -16 -4 -21 -15 -17 -17 7 -21 -21
-5 -31 13 -8 13 -75 0 -95 -7 -12 -11 -10 -19 10 -10 27 -10 35 -15 -190 -2
-52 0 -77 3 -55 5 31 8 36 13 20 4 -11 6 -29 3 -40 -2 -11 -4 -27 -5 -35 -1
-11 -3 -11 -7 -2 -12 31 -23 -7 -22 -81 1 -63 3 -74 9 -47 l7 35 2 -43 c0 -24
-2 -41 -6 -39 -14 9 -1 -86 13 -101 16 -15 19 -36 4 -27 -11 6 -26 -42 -16
-52 3 -4 6 5 7 18 l1 24 8 -25 c4 -14 8 -32 9 -40 1 -13 0 -13 -9 0 -8 13 -10
13 -10 -1 0 -9 7 -22 15 -29 17 -14 18 -12 16 55 -1 37 0 38 10 15 22 -50 28
-79 15 -74 -21 8 -44 -47 -34 -83 12 -44 18 -42 12 4 l-5 38 15 -32 c8 -18 20
-33 26 -33 5 0 10 -8 10 -17 0 -14 -2 -15 -9 -5 -6 10 -10 8 -14 -9 -3 -12 -1
-30 4 -38 9 -14 10 -14 5 1 -3 10 -1 20 4 23 6 4 10 -11 10 -35 0 -27 7 -51
20 -67 24 -31 27 -22 4 12 -9 14 -12 25 -7 25 11 0 48 -65 57 -100 7 -24 6
-24 -9 3 -23 39 -28 33 -8 -9 10 -19 19 -31 21 -26 1 5 11 8 22 5 14 -4 18
-12 15 -34 -4 -32 9 -38 24 -11 8 14 11 14 12 2 1 -8 1 -18 0 -23 0 -4 4 -7 9
-7 6 0 10 6 11 13 0 6 5 -1 11 -16 11 -31 6 -43 -12 -32 -9 6 -9 9 0 15 7 5 2
9 -15 12 -23 5 -19 -2 32 -53 32 -33 64 -59 71 -59 6 0 12 -4 12 -10 0 -5 5
-10 11 -10 22 0 3 35 -19 36 -36 2 -57 27 -42 50 9 15 10 15 6 2 -2 -9 4 -24
15 -34 21 -19 27 -6 7 15 -11 10 -10 12 1 9 25 -6 57 -43 53 -60 -3 -10 1 -18
7 -18 6 0 11 7 11 16 0 8 7 22 15 30 13 14 15 14 15 0 0 -9 -4 -16 -10 -16
-24 0 -8 -38 20 -50 17 -7 30 -18 30 -26 0 -8 6 -11 16 -7 13 5 13 7 2 14 -7
5 -8 9 -2 9 19 0 24 -13 11 -28 -10 -13 -9 -14 11 -3 13 7 32 9 45 5 38 -13
47 -13 47 2 0 21 18 17 25 -5 5 -17 17 -20 93 -23 55 -2 95 1 110 9 13 7 41
18 63 24 21 7 36 16 33 20 -3 5 -1 9 5 9 5 0 13 -5 16 -10 4 -6 10 -8 15 -5 5
3 2 15 -8 25 -17 21 -38 28 -27 10 4 -6 1 -9 -7 -8 -7 2 -12 -3 -10 -10 1 -8
-2 -11 -8 -7 -7 5 -8 11 -1 19 6 7 8 22 4 34 -3 13 -1 22 6 22 6 0 11 -7 11
-15 0 -17 6 -18 73 -16 35 2 48 -1 46 -11 -3 -17 11 -48 22 -48 4 0 6 7 3 15
-5 11 1 15 17 15 19 0 21 -2 9 -10 -8 -5 -10 -10 -5 -10 6 0 17 4 24 9 12 8 9
11 -11 16 -15 4 -33 4 -40 0 -7 -5 -6 -1 3 9 14 15 18 15 48 0 18 -9 34 -14
37 -11 3 2 -16 14 -41 26 -25 12 -45 25 -45 31 0 5 22 8 49 7 27 -1 44 -5 39
-8 -6 -4 -3 -11 8 -18 17 -11 16 -11 -6 -6 -24 6 -24 5 -6 -9 24 -20 36 -20
36 -3 0 9 12 14 30 14 17 0 36 5 43 12 9 10 6 10 -16 2 -41 -16 -23 6 20 24
44 19 54 19 29 0 -11 -8 -16 -15 -10 -15 13 1 45 26 39 32 -3 3 2 11 11 19 12
10 18 10 21 3 3 -8 15 -6 38 4 40 18 44 27 16 35 -12 3 -18 0 -15 -7 3 -7 -11
-10 -42 -9 -49 2 -75 13 -31 13 15 0 27 5 27 11 0 7 -7 8 -17 4 -10 -3 -36
-10 -58 -14 -23 -4 -50 -13 -60 -20 -20 -12 -20 -12 0 -7 20 6 20 6 1 -9 -11
-8 -29 -15 -40 -15 -20 1 -20 1 -3 14 19 15 23 15 -133 3 -48 -4 -64 -3 -45 2
l30 9 -38 1 c-21 0 -36 -3 -33 -8 7 -11 -34 -2 -50 11 -6 4 -18 6 -26 3 -9 -4
-18 1 -21 9 -4 9 -16 16 -27 16 -11 0 -44 16 -73 36 -34 23 -43 27 -24 10 15
-14 22 -26 15 -26 -20 1 -60 38 -53 50 4 6 -1 7 -11 3 -13 -5 -16 -3 -11 10 7
20 -14 39 -32 28 -15 -9 -3 -25 54 -69 24 -19 27 -25 15 -32 -22 -14 -34 -12
-21 3 12 16 5 27 -17 27 -8 0 -28 14 -44 32 -29 33 -35 44 -18 33 20 -12 10
14 -11 28 -14 11 -17 17 -9 22 11 7 24 -5 33 -30 3 -5 8 -7 12 -3 4 4 -9 29
-30 55 -54 68 -59 72 -52 46 3 -13 1 -26 -4 -29 -5 -3 -9 2 -9 11 0 9 -5 13
-11 10 -6 -4 -8 -13 -5 -21 3 -8 1 -14 -4 -14 -11 0 -14 19 -11 65 4 71 2 98
-9 105 -6 4 -10 11 -9 16 1 5 -3 21 -9 35 -6 15 -14 44 -18 64 -5 26 -9 33
-15 23 -13 -19 -11 -40 3 -32 8 5 9 2 5 -10 -4 -10 -8 -36 -8 -59 -1 -23 -3
-34 -6 -24 -2 9 -9 15 -14 12 -5 -4 -5 4 1 19 5 13 7 47 5 75 -2 30 0 49 6 46
5 -4 9 4 8 17 0 13 -3 17 -6 10 -2 -6 -9 -10 -14 -6 -5 3 -4 14 2 26 9 17 7
24 -17 45 -23 19 -24 22 -6 13 13 -6 22 -7 22 -1 0 5 -9 13 -21 16 -19 6 -20
7 -2 20 10 7 15 17 10 21 -4 4 -12 3 -18 -3 -6 -6 -19 -8 -30 -6 -21 6 -26 23
-6 23 7 0 18 9 25 20 14 22 41 27 43 8 1 -7 3 -20 4 -28 1 -8 3 -21 4 -28 1
-9 12 -10 39 -6 20 4 150 7 287 7 138 0 244 2 238 4 -31 11 -8 24 40 24 28 -1
61 -1 72 -1 11 1 24 -5 30 -13 11 -15 7 -16 92 8 34 10 60 22 57 27 -3 4 -14
3 -25 -2 -14 -8 -21 -8 -24 2 -3 8 -18 14 -33 15 -23 1 -24 1 -7 -7 17 -7 16
-9 -10 -8 -16 0 -41 3 -55 7 -23 7 -22 8 15 15 85 16 135 14 146 -6 5 -10 15
-18 22 -18 7 0 6 4 -3 10 -10 6 -11 10 -2 10 6 0 12 8 13 18 0 11 2 12 6 4 4
-10 10 -9 26 5 19 17 20 17 14 0 -6 -15 -4 -16 14 -7 11 6 17 15 14 19 -6 11
13 27 45 36 23 6 23 5 -5 -14 -16 -12 -25 -21 -20 -21 16 0 56 30 51 38 -2 4
3 16 11 27 15 20 15 19 10 -3 -6 -23 -5 -24 16 -5 41 35 46 41 40 47 -10 10
-12 37 -3 31 15 -9 23 17 9 27 -11 8 -10 8 4 4 10 -3 21 -6 24 -6 3 0 -2 -11
-11 -25 -23 -36 -2 -31 24 5 14 20 16 28 7 24 -14 -5 -33 24 -22 34 3 3 5 0 5
-6 0 -7 8 -12 18 -11 9 0 12 3 5 6 -8 3 -4 12 12 26 19 16 22 26 15 37 -8 13
-10 12 -10 -2 0 -10 -4 -18 -10 -18 -13 0 -33 40 -24 48 4 4 9 1 11 -5 7 -20
23 -15 23 6 0 10 8 25 17 32 10 9 14 9 10 2 -5 -7 1 -21 13 -33 21 -21 27 -16
11 10 -7 10 -4 18 8 27 21 14 33 71 24 114 -4 23 -8 27 -19 18 -18 -15 -30 12
-16 36 8 16 10 16 25 0 16 -15 17 -15 16 12 0 15 -3 22 -6 15 -4 -10 -8 -10
-19 -1 -11 9 -11 13 1 26 8 8 15 20 15 26 0 9 -2 9 -8 1 -4 -6 -15 -10 -24 -8
-13 1 -18 -5 -18 -22 0 -15 -6 -24 -16 -24 -13 0 -15 -8 -12 -35 2 -19 0 -35
-4 -35 -9 0 -10 85 -1 118 4 18 8 20 14 10 7 -11 9 -11 9 1 0 11 3 11 15 1 13
-10 14 -7 11 27 -4 51 -45 126 -64 118 -10 -4 -12 0 -8 10 6 16 -80 110 -166
182 l-37 31 60 52 c32 28 59 57 59 63 -1 7 -10 1 -20 -12 -11 -13 -20 -18 -20
-12 0 15 41 51 52 45 4 -3 14 8 21 25 7 17 17 28 21 24 4 -4 4 1 0 12 -7 17
-10 14 -26 -20 -9 -22 -17 -33 -17 -25 0 8 8 32 18 53 13 29 20 35 24 23 9
-22 20 -20 35 5 8 12 9 18 3 15 -7 -4 -8 -1 -5 8 3 9 1 16 -4 16 -6 0 -13 -10
-15 -22 -4 -21 -4 -20 -6 3 -1 32 24 46 38 21 6 -9 11 -12 11 -6 0 16 -25 35
-36 26 -4 -4 -2 1 6 11 13 17 15 17 26 3 11 -15 12 -15 18 -1 3 9 2 13 -4 10
-6 -3 -10 -2 -10 4 0 5 5 13 10 16 6 3 10 12 10 18 0 7 -4 6 -10 -3 -6 -9 -10
-10 -10 -3 0 6 5 15 11 18 6 4 8 13 5 20 -2 7 2 16 10 19 9 3 12 10 9 16 -3 5
-1 10 4 10 7 0 10 21 9 53 -1 47 -2 48 -5 12 -3 -22 -9 -45 -15 -52 -5 -7 -7
-17 -3 -23 3 -5 4 -10 1 -10 -3 0 -10 10 -17 21 -7 14 -7 19 0 15 16 -10 24
38 18 97 -5 35 -3 47 3 37 18 -28 11 9 -11 61 -20 45 -39 64 -39 38 0 -8 -4
-8 -13 0 -10 8 -17 7 -25 -1 -8 -8 -12 -8 -12 -1 0 12 25 35 31 28 3 -2 6 6 6
18 1 12 -1 17 -5 12 -4 -6 -16 -17 -27 -25 -19 -14 -19 -14 -6 3 11 14 11 21
3 29 -17 17 -15 33 3 18 18 -15 20 -4 2 15 -9 9 -19 10 -31 3 -14 -8 -16 -6
-11 15 4 15 1 28 -9 36 -14 12 -16 10 -16 -8 0 -25 -18 -27 -46 -6 -17 13 -17
14 -2 15 23 0 32 18 18 35 -13 16 -50 21 -50 7 0 -4 -10 -8 -22 -9 -20 -2 -20
0 6 14 l29 15 -24 14 c-29 16 -42 18 -34 4 3 -5 1 -10 -4 -10 -6 0 -11 7 -11
15 0 8 -6 15 -14 15 -7 0 -19 6 -25 14 -6 8 -32 17 -56 21 -25 3 -45 10 -45
15 0 9 -140 44 -147 36 -3 -3 12 -8 33 -12 40 -7 79 -23 57 -24 -6 0 -19 -3
-29 -7 -12 -4 -15 -3 -10 6 5 8 3 11 -5 10 -8 -2 -31 0 -51 4 -29 6 -36 11
-31 25 6 15 5 16 -12 2 -17 -14 -18 -13 -12 2 3 9 1 19 -6 22 -7 2 -4 5 5 5
19 1 41 34 30 46 -4 4 0 6 8 3 8 -2 23 5 32 18 21 25 22 34 7 34 -5 0 -8 -4
-4 -9 3 -5 1 -12 -5 -16 -5 -3 -10 1 -10 10 0 8 7 18 15 22 9 3 15 13 13 22
-4 23 10 41 32 41 14 0 18 -5 13 -17 -6 -16 -4 -16 15 1 24 21 29 37 10 32 -7
-1 -10 -1 -5 1 14 9 7 25 -9 19 -14 -5 -15 -4 -4 9 11 13 15 12 31 -8 19 -21
19 -21 17 -2 -2 11 2 19 9 18 6 -1 17 4 23 12 10 12 9 16 -5 21 -9 4 -20 1
-25 -5 -5 -9 -9 -7 -12 6 -7 25 6 61 16 45 4 -7 5 -16 2 -21 -3 -5 5 -11 18
-13 19 -4 23 -1 18 10 -4 11 -1 14 12 9 12 -5 19 1 27 20 12 32 5 42 -11 14
-16 -31 -31 -25 -25 10 4 22 2 28 -6 23 -8 -5 -9 -3 -4 6 6 10 10 10 20 -3 8
-11 15 -13 26 -6 11 8 11 12 1 16 -6 2 -10 9 -6 14 9 16 34 -18 27 -38 -4 -11
2 -8 15 9 12 14 22 30 22 35 0 4 -4 1 -10 -7 -5 -8 -12 -11 -16 -7 -11 11 18
39 34 32 9 -3 12 0 9 9 -3 8 1 20 9 27 12 10 13 9 8 -7 -4 -10 9 1 29 25 19
24 33 50 30 58 -8 20 -25 16 -19 -5 3 -10 -1 -27 -11 -38 -13 -17 -20 -19 -39
-10 -13 6 -24 16 -24 23 0 6 -3 20 -6 30 -5 17 -5 17 9 0 8 -10 21 -15 31 -11
9 3 16 2 16 -4 0 -6 -6 -12 -12 -15 -7 -2 -10 -8 -5 -13 12 -13 42 23 31 38
-7 9 -3 20 14 36 21 20 23 21 18 4 -13 -39 21 -32 55 11 18 23 37 44 41 45 17
8 6 22 -29 38 -20 10 -31 20 -25 22 7 2 12 11 12 19 0 13 2 13 17 2 9 -8 19
-14 22 -14 3 0 5 -5 5 -12 -1 -7 9 -10 25 -9 17 2 31 13 40 32 8 16 18 31 23
32 19 8 6 23 -14 17 -16 -4 -19 -4 -9 3 8 6 10 15 5 23 -6 12 -5 12 8 1 14
-11 20 -7 47 24 16 21 28 41 26 45 -3 4 5 5 17 1 12 -3 19 -1 15 4 -3 6 4 11
16 11 21 2 21 1 -3 -19 -24 -20 -24 -20 -3 -14 18 6 22 4 17 -8 -9 -25 4 -20
75 28 36 24 89 56 116 72 28 16 51 35 53 42 2 10 -2 10 -19 2 -11 -7 -24 -8
-27 -4 -4 4 -1 9 6 11 6 3 10 8 7 12 -4 7 12 8 49 2 4 0 5 -9 2 -18 -5 -16 -5
-16 6 -2 7 9 18 14 24 12 15 -5 55 32 46 43 -4 4 0 3 8 -3 11 -9 21 -8 40 2
14 8 21 14 17 15 -12 0 20 30 32 30 6 0 11 -4 11 -10 0 -5 5 -10 11 -10 8 0 7
6 -2 17 -13 15 -11 16 14 11 24 -5 26 -3 15 10 -11 13 -10 15 5 9 10 -4 24 -7
30 -7 7 0 6 -5 -3 -11 -12 -9 -11 -10 5 -4 11 3 46 14 78 22 39 11 56 21 53
29 -3 8 -1 16 3 19 5 2 11 -4 14 -15 5 -18 14 -20 94 -20 93 0 168 -16 234
-48 29 -14 39 -16 39 -6 0 7 -10 15 -22 17 -16 3 -12 5 12 6 29 1 32 3 18 12
-12 7 -24 6 -38 -1 -12 -6 -31 -8 -43 -4 l-22 7 24 8 c12 5 27 7 32 3 5 -3 9
-1 9 4 0 5 -9 12 -20 15 -26 7 -26 23 0 30 11 3 18 2 16 -2 -12 -19 55 -67 77
-56 6 4 1 -3 -13 -15 -18 -16 -20 -20 -7 -16 12 4 16 2 11 -5 -4 -8 1 -9 17
-4 23 7 23 7 4 -8 -13 -10 -22 -12 -26 -5 -4 7 -9 6 -13 -1 -4 -6 -1 -11 6
-12 7 -1 20 -2 28 -3 22 -2 65 -34 57 -42 -4 -4 -19 3 -35 17 -15 13 -2 -4 28
-37 30 -34 60 -60 67 -58 15 4 27 -13 13 -18 -5 -1 1 -16 15 -32 14 -16 25
-36 25 -45 0 -13 2 -13 9 -2 9 14 31 7 31 -10 0 -6 -4 -8 -9 -5 -4 3 -1 -10 7
-29 17 -36 32 -38 31 -2 0 21 -1 21 -9 2 -7 -17 -8 -15 -8 10 1 17 -4 41 -11
52 -9 18 -7 29 9 58 11 19 15 35 9 35 -6 0 -9 8 -8 18 4 24 -21 93 -31 87 -4
-3 -14 3 -21 12 -10 12 -10 14 -1 9 6 -4 12 -3 12 1 0 5 -6 15 -12 22 -11 11
-10 12 2 6 13 -8 13 -7 1 8 -7 9 -20 17 -27 17 -8 0 -15 8 -15 18 -1 9 -2 22
-4 27 -1 6 -3 16 -3 23 -1 6 -7 12 -13 12 -8 0 -7 -5 1 -15 7 -9 10 -18 8 -21
-7 -6 -48 44 -48 59 0 5 8 3 17 -4 12 -9 10 -3 -5 18 -25 36 -42 49 -42 34 0
-5 6 -12 13 -14 7 -3 5 -6 -5 -6 -10 -1 -18 -6 -18 -13 0 -6 -7 -4 -18 5 -10
10 -22 15 -25 12 -4 -3 -5 -2 -2 2 3 4 -9 13 -26 20 -18 7 -28 17 -23 24 3 6
1 15 -7 19 -10 7 -10 12 2 26 13 16 12 16 -10 4 -21 -11 -23 -10 -17 5 3 10 1
25 -6 34 -10 13 -8 12 8 -1 11 -10 25 -18 30 -18 5 1 -1 9 -14 20 -13 11 -30
16 -39 13 -12 -5 -14 -3 -8 7 6 9 4 11 -5 5 -7 -4 -15 -4 -19 1 -3 5 -18 17
-33 27 -28 18 -38 11 -16 -11 17 -17 -3 -15 -26 3 -10 7 -15 18 -12 23 10 17
-26 23 -49 8 -15 -10 -26 -11 -36 -4 -11 8 -10 9 4 4 10 -3 16 -2 12 3 -3 5 1
11 7 14 7 3 -7 3 -32 0 -34 -3 -41 -2 -30 6 18 13 4 13 -25 1z m-241 -32 c4 4
21 7 36 7 36 0 26 -10 -17 -18 -23 -5 -35 -2 -45 11 -11 15 -11 16 3 5 9 -7
19 -9 23 -5z m370 -3 c-4 -8 -13 -15 -21 -15 -13 0 -13 3 -3 15 7 8 16 15 21
15 5 0 6 -7 3 -15z m-414 -24 c0 -13 -64 -41 -92 -41 -20 1 -19 3 10 15 17 8
32 19 32 25 0 5 11 10 25 10 14 0 25 -4 25 -9z m273 -23 c5 1 6 -2 2 -7 -6
-11 -31 -5 -52 12 -7 5 -13 6 -13 3 0 -4 -5 -4 -10 -1 -6 4 -8 11 -5 16 4 5
20 2 38 -8 18 -9 36 -16 40 -15z m-350 15 c-7 -2 -19 -2 -25 0 -7 3 -2 5 12 5
14 0 19 -2 13 -5z m514 -4 c6 -6 26 -15 45 -19 l33 -8 -37 -1 c-20 -1 -40 4
-43 9 -10 17 -35 12 -28 -6 4 -12 0 -14 -23 -8 -47 11 -50 17 -13 30 44 16 53
16 66 3z m103 -29 c0 -5 -4 -10 -10 -10 -5 0 -10 5 -10 10 0 6 5 10 10 10 6 0
10 -4 10 -10z m-316 -9 c3 -5 -3 -11 -14 -14 -20 -5 -35 5 -23 17 9 9 31 7 37
-3z m-66 -8 c-10 -2 -26 -2 -35 0 -10 3 -2 5 17 5 19 0 27 -2 18 -5z m366 -14
c-6 -11 -24 -2 -24 11 0 5 7 7 15 4 8 -4 12 -10 9 -15z m-758 -34 c-8 -8 -18
-15 -22 -15 -3 0 -1 7 6 15 7 8 17 15 22 15 5 0 3 -7 -6 -15z m751 -17 c-3 -8
-6 -5 -6 6 -1 11 2 17 5 13 3 -3 4 -12 1 -19z m98 -79 c-4 -5 -12 -3 -21 5
-20 21 -17 28 6 16 11 -6 18 -15 15 -21z m118 -9 c-6 -21 -25 -28 -20 -7 2 10
16 26 24 27 0 0 -1 -9 -4 -20z m-1183 -2 c0 -4 -4 -8 -9 -8 -6 0 -12 4 -15 8
-3 5 1 9 9 9 8 0 15 -4 15 -9z m984 -3 c-4 -10 0 -15 12 -16 18 0 17 -1 -1 -9
-35 -15 -45 -11 -43 15 2 16 8 25 20 25 11 0 15 -5 12 -15z m160 -7 c-3 -4 -9
-8 -15 -8 -5 0 -9 4 -9 8 0 5 7 9 15 9 8 0 12 -4 9 -9z m-1254 -27 c0 -5 11
-8 25 -6 25 2 33 -9 15 -20 -6 -4 -25 -8 -43 -11 -24 -3 -28 -1 -17 7 11 8 12
12 2 16 -6 2 -10 9 -6 14 7 12 24 12 24 0z m530 -1 c0 -5 -4 -10 -9 -10 -6 0
-13 5 -16 10 -3 6 1 10 9 10 9 0 16 -4 16 -10z m67 -5 c-5 -14 -50 -12 -54 2
-3 8 6 12 26 10 17 -1 30 -6 28 -12z m239 0 c13 -10 44 -14 98 -15 44 0 76 -3
72 -7 -4 -4 -45 -8 -92 -8 -70 -1 -87 2 -92 14 -3 9 -10 19 -16 23 -8 5 -8 8
0 8 5 0 19 -7 30 -15z m403 1 c10 -12 8 -13 -8 -9 -12 3 -21 9 -21 14 0 14 16
11 29 -5z m81 -5 c15 -30 12 -33 -10 -11 -22 22 -25 30 -10 30 5 0 14 -9 20
-19z m-712 -35 c-1 -14 -6 -22 -10 -20 -4 3 -8 0 -8 -6 0 -18 -33 -7 -36 13
-1 9 2 17 7 17 5 0 9 -8 9 -17 0 -13 5 -11 18 10 20 33 22 33 20 3z m157 4 c3
-6 -4 -10 -17 -10 -18 0 -20 2 -8 10 19 12 18 12 25 0z m349 1 c6 -10 -43 -25
-52 -16 -3 3 2 5 11 5 10 0 17 5 17 10 0 12 17 13 24 1z m196 -1 c0 -5 -12
-10 -27 -10 -22 0 -25 2 -13 10 20 13 40 13 40 0z m-263 -6 c-3 -3 -12 -4 -19
-1 -8 3 -5 6 6 6 11 1 17 -2 13 -5z m-955 -26 c-7 -7 -12 -8 -12 -2 0 14 12
26 19 19 2 -3 -1 -11 -7 -17z m448 11 c0 -5 -4 -7 -10 -4 -5 3 -10 1 -10 -6 0
-7 -3 -10 -6 -6 -8 7 4 27 17 27 5 0 9 -5 9 -11z m165 1 c-28 -12 -37 -12 -30
0 3 6 16 10 28 9 21 0 21 -1 2 -9z m585 -40 c0 -5 -4 -10 -10 -10 -5 0 -10 5
-10 10 0 6 5 10 10 10 6 0 10 -4 10 -10z m-1367 -16 c-4 -10 -13 -14 -29 -10
-17 5 -24 1 -29 -14 -3 -11 -11 -20 -17 -20 -7 0 -6 5 1 14 9 11 9 15 -1 19
-7 2 7 9 32 15 25 5 46 10 47 11 1 1 0 -6 -4 -15z m1424 3 c-3 -8 -1 -20 3
-28 5 -8 4 -19 -2 -26 -7 -9 -7 -13 1 -13 6 0 11 5 11 10 0 6 10 10 22 10 l21
0 -22 -19 c-18 -16 -20 -24 -12 -38 10 -17 12 -16 15 9 0 6 6 13 12 15 17 6
14 -49 -4 -70 -15 -17 -14 -17 4 -11 10 4 23 12 27 18 5 7 6 4 3 -7 -3 -10 -6
-23 -6 -29 0 -6 -6 -6 -15 2 -11 9 -15 9 -15 1 0 -7 -5 -9 -10 -6 -6 4 -8 15
-5 24 3 10 -4 29 -15 44 -12 14 -23 40 -25 58 -2 17 -6 34 -9 37 -3 3 -1 11 5
19 15 17 23 17 16 0z m-1267 -7 c0 -5 -7 -10 -15 -10 -8 0 -15 5 -15 10 0 6 7
10 15 10 8 0 15 -4 15 -10z m450 -6 c0 -2 -7 -4 -15 -4 -8 0 -15 4 -15 10 0 5
7 7 15 4 8 -4 15 -8 15 -10z m790 -25 c0 -24 -11 -24 -33 1 -18 22 -9 28 12 8
10 -11 11 -9 5 6 -5 13 -4 17 4 12 7 -4 12 -16 12 -27z m60 21 c0 -5 -4 -10
-9 -10 -6 0 -13 5 -16 10 -3 6 1 10 9 10 9 0 16 -4 16 -10z m-910 -8 c0 -11
-22 -32 -33 -32 -4 0 -5 5 -1 11 4 8 0 9 -15 4 -11 -3 -29 -1 -38 5 -17 11
-17 11 -1 6 10 -3 28 -1 40 4 29 11 48 12 48 2z m-170 -27 c0 -8 -3 -15 -7
-16 -5 0 -16 -2 -25 -4 -10 -2 -18 1 -18 7 0 6 7 7 16 4 12 -4 15 -2 10 9 -3
9 0 15 9 15 8 0 15 -7 15 -15z m1130 -5 c0 -11 -2 -20 -4 -20 -2 0 -6 9 -9 20
-3 11 -1 20 4 20 5 0 9 -9 9 -20z m-1590 -9 c0 -10 -42 -23 -49 -15 -7 6 20
24 37 24 6 0 12 -4 12 -9z m1488 -31 c32 -43 27 -50 -8 -12 -31 35 -35 42 -22
42 5 0 18 -13 30 -30z m-995 6 c16 -12 13 -15 -26 -37 -24 -13 -63 -37 -87
-52 -33 -23 -44 -26 -51 -16 -9 16 -1 28 9 13 9 -13 87 45 87 65 0 8 7 16 15
18 12 4 12 3 1 -5 -9 -7 -10 -12 -2 -16 6 -4 18 0 27 8 8 9 11 16 5 16 -6 0
-11 5 -11 10 0 13 11 12 33 -4z m-533 -16 c0 -5 -2 -10 -4 -10 -3 0 -8 5 -11
10 -3 6 -1 10 4 10 6 0 11 -4 11 -10z m60 -5 c7 -9 10 -18 7 -21 -10 -11 -37
5 -37 21 0 19 14 19 30 0z m350 5 c0 -5 -5 -10 -11 -10 -5 0 -7 5 -4 10 3 6 8
10 11 10 2 0 4 -4 4 -10z m1220 0 c0 -5 -2 -10 -4 -10 -3 0 -8 5 -11 10 -3 6
-1 10 4 10 6 0 11 -4 11 -10z m-1370 -95 c-7 -9 -15 -13 -17 -11 -6 6 20 36
26 30 2 -2 -2 -10 -9 -19z m-440 -13 c-8 -3 -22 -10 -30 -16 -8 -6 -7 -1 4 11
10 13 23 20 29 16 7 -4 6 -8 -3 -11z m407 12 c-3 -3 -12 -4 -19 -1 -8 3 -5 6
6 6 11 1 17 -2 13 -5z m1393 -4 c0 -5 -2 -10 -4 -10 -3 0 -8 5 -11 10 -3 6 -1
10 4 10 6 0 11 -4 11 -10z m-1738 -82 c-7 -7 -12 -20 -12 -30 0 -11 -7 -18
-20 -18 -28 0 -26 32 3 46 30 16 43 16 29 2z m291 -22 c4 -10 1 -13 -9 -9 -7
3 -14 9 -14 14 0 14 17 10 23 -5z m-145 -41 c-3 -3 -9 2 -12 12 -6 14 -5 15 5
6 7 -7 10 -15 7 -18z m-378 -30 c-7 -9 -15 -13 -17 -11 -6 6 20 36 26 30 2 -2
-2 -10 -9 -19z m93 18 c-21 -8 -15 -33 7 -33 23 0 27 -15 5 -24 -8 -3 -15 -2
-15 3 0 5 -11 12 -25 15 -22 6 -23 9 -13 26 7 11 22 20 33 19 11 0 14 -3 8 -6z
m312 -33 c3 -5 1 -10 -4 -10 -6 0 -11 5 -11 10 0 6 2 10 4 10 3 0 8 -4 11 -10z
m45 -20 c10 -7 11 -13 5 -17 -6 -5 -21 -21 -33 -37 -28 -37 -29 -24 -1 16 12
16 18 32 14 36 -3 4 -11 -1 -16 -11 -6 -9 -15 -17 -21 -17 -6 0 -3 9 7 20 21
23 24 24 45 10z m-90 -50 c-6 -12 -14 -20 -17 -17 -2 3 1 14 8 26 7 11 15 18
17 16 2 -2 -2 -13 -8 -25z m-163 -12 c-3 -8 -6 -5 -6 6 -1 11 2 17 5 13 3 -3
4 -12 1 -19z m73 -30 c-1 -26 -3 -30 -10 -16 -6 9 -7 23 -4 32 9 25 14 19 14
-16z m-304 -33 c-9 -9 -20 -13 -26 -10 -17 11 -43 -24 -38 -50 4 -20 1 -24
-14 -21 -36 5 -39 29 -7 48 16 10 34 28 39 41 5 12 9 16 9 10 1 -20 31 -15 31
4 0 13 3 14 11 6 9 -9 8 -16 -5 -28z m237 15 c-5 -19 -23 -39 -23 -25 0 9 20
45 24 45 2 0 2 -9 -1 -20z m67 -75 c0 -8 -7 -15 -15 -15 -26 0 -18 20 13 29 1
1 2 -6 2 -14z m-40 1 c0 -3 -4 -8 -10 -11 -5 -3 -10 -1 -10 4 0 6 5 11 10 11
6 0 10 -2 10 -4z m-290 -46 c0 -5 -9 -10 -20 -10 -11 0 -20 5 -20 10 0 6 9 10
20 10 11 0 20 -4 20 -10z m214 -9 c3 -5 -3 -11 -14 -14 -11 -3 -24 -16 -29
-29 -6 -12 -10 -18 -11 -13 0 6 -5 3 -11 -5 -8 -12 -9 -12 -7 4 6 40 58 81 72
57z m-356 -38 c2 -7 -1 -13 -8 -13 -6 0 -9 -4 -5 -9 3 -5 0 -13 -6 -17 -8 -5
-9 -3 -4 6 6 10 4 12 -8 7 -11 -4 -14 -2 -10 9 3 7 0 14 -6 14 -6 0 -11 -5
-11 -12 0 -6 -3 -8 -6 -5 -4 4 -2 13 5 20 14 17 53 17 59 0z m242 -8 c0 -8 -7
-15 -15 -15 -16 0 -20 12 -8 23 11 12 23 8 23 -8z m90 -30 c0 -8 -4 -15 -10
-15 -5 0 -7 7 -4 15 4 8 8 15 10 15 2 0 4 -7 4 -15z m-270 -46 c0 -14 -17 -10
-23 5 -4 10 -1 13 9 9 7 -3 14 -9 14 -14z m254 -4 c-28 -22 -40 -18 -13 4 13
11 26 17 28 15 3 -2 -4 -11 -15 -19z m66 1 c0 -3 -4 -8 -10 -11 -5 -3 -10 -1
-10 4 0 6 5 11 10 11 6 0 10 -2 10 -4z m-133 -61 c-4 -8 -12 -15 -19 -14 -10
0 -10 2 0 6 6 2 12 12 12 21 0 8 3 13 6 9 4 -3 4 -13 1 -22z m-20 -50 c0 -8
-4 -12 -9 -9 -4 3 -8 9 -8 15 0 5 4 9 8 9 5 0 9 -7 9 -15z m-57 -25 c0 -5 -4
-10 -9 -10 -6 0 -13 5 -16 10 -3 6 1 10 9 10 9 0 16 -4 16 -10z m-290 -51 c0
-7 -6 -5 -13 6 -10 13 -21 16 -43 12 l-29 -6 28 13 c15 6 26 14 25 17 -2 2 5
-4 15 -13 9 -9 17 -23 17 -29z m245 11 c-3 -5 -10 -10 -16 -10 -5 0 -9 5 -9
10 0 6 7 10 16 10 8 0 12 -4 9 -10z m35 -2 c-1 -15 -24 -48 -34 -48 -3 0 -6 7
-6 15 0 8 5 15 10 15 6 0 10 7 10 15 0 8 5 15 10 15 6 0 10 -6 10 -12z m55 2
c3 -5 -1 -10 -9 -10 -9 0 -16 5 -16 10 0 6 4 10 9 10 6 0 13 -4 16 -10z m-440
-50 c-9 -10 -23 -16 -31 -13 -8 3 -14 0 -14 -6 0 -6 7 -11 15 -11 8 0 15 -5
15 -11 0 -5 -4 -8 -9 -5 -14 9 0 -37 17 -57 19 -21 8 -35 -14 -17 -12 11 -17
11 -23 1 -6 -9 -10 -8 -13 6 -3 10 -9 27 -14 37 -5 13 -4 17 3 13 6 -4 14 0
17 9 3 8 2 12 -4 9 -6 -4 -7 3 -1 17 4 13 18 27 29 33 12 5 22 13 22 18 0 4 5
5 11 2 7 -5 5 -13 -6 -25z m402 4 c-3 -3 -12 -4 -19 -1 -8 3 -5 6 6 6 11 1 17
-2 13 -5z m-377 -33 c0 -6 -4 -13 -10 -16 -5 -3 -10 1 -10 9 0 9 5 16 10 16 6
0 10 -4 10 -9z m417 -72 c-14 -8 -22 -8 -30 0 -8 8 -3 11 19 11 25 -1 27 -2
11 -11z m140 5 c-3 -3 -12 -4 -19 -1 -8 3 -5 6 6 6 11 1 17 -2 13 -5z m-37 -8
c0 -2 -7 -7 -16 -10 -8 -3 -12 -2 -9 4 6 10 25 14 25 6z m-80 -14 c0 -4 -17
-8 -37 -9 -37 -1 -37 -1 -8 7 42 11 45 11 45 2z m170 4 c0 -2 -9 -6 -20 -9
-11 -3 -18 -1 -14 4 5 9 34 13 34 5z m89 -43 c2 -2 -5 -11 -17 -21 -12 -11
-18 -23 -14 -27 4 -4 -5 0 -20 10 -35 22 -35 29 -3 23 31 -6 32 5 3 33 l-23
22 35 -19 c19 -10 37 -20 39 -21z m-786 -25 c-3 -18 -10 -37 -16 -43 -7 -7 -8
-6 -3 3 4 6 2 12 -3 12 -6 0 -11 7 -11 16 0 8 5 12 11 8 8 -4 9 0 4 15 -4 15
-2 21 9 21 12 0 14 -7 9 -32z m842 2 c-3 -5 -11 -10 -16 -10 -6 0 -7 5 -4 10
3 6 11 10 16 10 6 0 7 -4 4 -10z m-35 -13 c0 -8 -6 -14 -14 -14 -8 0 -12 6 -9
14 3 7 9 13 14 13 5 0 9 -6 9 -13z m-876 -69 c4 -17 2 -28 -4 -28 -5 0 -10 14
-10 32 0 36 4 35 14 -4z m898 0 c-7 -7 -12 -8 -12 -2 0 6 3 14 7 17 3 4 9 5
12 2 2 -3 -1 -11 -7 -17z m-802 -14 c0 -2 -7 -4 -15 -4 -8 0 -15 4 -15 10 0 5
7 7 15 4 8 -4 15 -8 15 -10z m883 -9 c10 -23 -9 -26 -33 -5 l-23 20 25 0 c14
0 28 -7 31 -15z m-1047 -44 c0 -18 -5 -27 -13 -24 -9 4 -9 11 -1 29 14 31 16
30 14 -5z m31 -13 c-3 -8 -6 -5 -6 6 -1 11 2 17 5 13 3 -3 4 -12 1 -19z m953
-38 c0 -5 -4 -10 -10 -10 -5 0 -10 5 -10 10 0 6 5 10 10 10 6 0 10 -4 10 -10z
m-999 -51 c-5 -13 -10 -19 -10 -12 -1 15 10 45 15 40 3 -2 0 -15 -5 -28z m99
21 c0 -5 -4 -10 -10 -10 -5 0 -10 5 -10 10 0 6 5 10 10 10 6 0 10 -4 10 -10z
m1085 0 c3 -5 1 -10 -4 -10 -6 0 -11 5 -11 10 0 6 2 10 4 10 3 0 8 -4 11 -10z
m46 -68 c-7 -13 -15 -22 -18 -18 -4 3 -2 11 4 17 12 12 5 59 -9 59 -5 0 -6 5
-2 11 4 8 12 2 21 -16 12 -22 13 -33 4 -53z m-1258 41 c-7 -3 -9 -12 -6 -21 4
-14 3 -14 -5 -3 -12 17 -4 43 11 34 8 -5 8 -8 0 -10z m312 -15 c4 -4 13 -4 21
-1 8 3 14 0 14 -6 0 -7 -22 -11 -56 -11 -46 0 -54 2 -45 13 11 14 54 17 66 5z
m82 -14 c-3 -3 -12 -4 -19 -1 -8 3 -5 6 6 6 11 1 17 -2 13 -5z m-172 -14 c3
-5 1 -10 -4 -10 -6 0 -11 5 -11 10 0 6 2 10 4 10 3 0 8 -4 11 -10z m345 -14
c0 -2 -7 -6 -15 -10 -8 -3 -15 -1 -15 4 0 6 7 10 15 10 8 0 15 -2 15 -4z
m-604 -61 c-2 -7 1 -18 7 -24 8 -8 8 -11 0 -11 -13 0 -25 28 -17 41 3 5 0 9
-5 9 -6 0 -11 5 -11 11 0 8 5 7 15 -1 9 -7 14 -19 11 -25z m64 9 c0 -8 -6 -14
-12 -14 -9 0 -9 -3 -2 -8 6 -4 4 -13 -7 -23 -15 -15 -16 -14 -14 14 1 17 7 33
14 35 6 2 8 9 5 14 -4 7 -2 8 4 4 7 -4 12 -14 12 -22z m240 16 c23 15 33 12
16 -5 -8 -8 -22 -15 -31 -15 -13 0 -14 -4 -5 -20 6 -11 7 -20 3 -20 -5 0 -14
14 -20 30 -6 17 -7 28 -2 24 5 -3 9 1 9 8 0 10 2 10 8 1 5 -8 13 -9 22 -3z
m336 -32 c2 -3 -16 -9 -41 -15 -25 -6 -45 -6 -45 -2 0 5 -11 9 -25 9 -14 0
-25 -5 -25 -10 0 -7 -7 -7 -21 1 -20 10 -50 9 -113 -7 -22 -5 -28 -4 -24 7 3
10 30 15 104 17 54 1 103 7 107 11 8 8 73 -1 83 -11z m-323 -12 c3 -8 1 -17
-6 -20 -7 -2 63 -5 155 -5 95 0 175 -4 186 -10 13 -7 22 -7 30 1 7 7 15 8 19
4 4 -4 1 -11 -7 -16 -12 -8 -12 -11 2 -27 8 -10 14 -24 12 -31 -1 -7 0 -8 3
-2 8 17 21 11 25 -11 2 -12 17 -29 36 -39 30 -16 31 -19 17 -34 -9 -9 -23 -16
-32 -16 -12 0 -13 -3 -4 -14 9 -11 8 -17 -4 -29 -8 -9 -15 -23 -15 -32 0 -9
-3 -14 -7 -12 -5 3 -8 31 -8 64 0 50 2 58 18 55 19 -3 23 13 6 23 -13 9 -40
-25 -34 -42 2 -7 0 -13 -6 -13 -6 0 -6 -7 1 -20 8 -16 8 -18 -4 -14 -8 3 -17
1 -21 -5 -3 -6 -14 -11 -23 -10 -12 0 -11 3 6 9 12 5 22 13 22 18 0 5 -15 2
-34 -7 -20 -10 -29 -19 -22 -23 8 -6 7 -11 -3 -17 -7 -5 -10 -14 -7 -20 4 -6
2 -11 -3 -11 -6 0 -11 7 -11 16 0 12 -4 14 -12 7 -19 -15 -184 -10 -181 5 2 8
-13 12 -42 12 -25 0 -45 -2 -45 -3 0 -2 10 -12 22 -23 21 -19 21 -19 14 1 -5
15 -4 17 5 8 12 -12 5 -33 -12 -33 -5 0 -18 15 -29 33 -11 17 -20 28 -20 22 0
-5 -5 -3 -10 5 -8 13 -10 12 -11 -5 -1 -11 -5 0 -10 25 -5 25 -7 57 -3 73 3
16 1 27 -5 27 -6 0 -8 -6 -5 -14 3 -8 1 -17 -4 -20 -5 -3 -9 5 -9 19 0 13 6
26 14 29 8 3 11 10 8 16 -3 5 -1 10 6 10 9 0 9 3 0 14 -9 11 -9 15 0 18 8 3 7
9 -4 20 -9 8 -13 18 -10 22 4 3 1 6 -6 6 -7 0 -9 5 -6 11 5 6 13 2 22 -11 14
-20 17 -21 25 -6 5 9 6 21 3 26 -3 6 -2 10 3 10 6 0 12 -6 15 -14z m402 -6
c-3 -5 -11 -10 -16 -10 -6 0 -7 5 -4 10 3 6 11 10 16 10 6 0 7 -4 4 -10z m-40
-10 c-3 -5 -12 -7 -20 -3 -21 7 -19 13 6 13 11 0 18 -4 14 -10z m-431 -38 c5
-9 -41 -8 -51 1 -3 4 5 7 20 7 14 0 28 -4 31 -8z m544 -19 c-4 -22 -22 -20
-26 1 -2 10 3 16 13 16 10 0 15 -7 13 -17z m-573 -14 c5 -6 3 -9 -5 -9 -11 -1
-9 -5 5 -16 17 -12 18 -16 5 -24 -19 -12 -30 -3 -30 25 0 13 -8 29 -17 35 -15
9 -14 10 7 4 14 -3 29 -10 35 -15z m542 -20 c-1 -19 -2 -19 -14 -3 -7 9 -10
21 -7 26 9 14 23 -1 21 -23z m123 -19 c0 -16 -4 -30 -10 -30 -5 0 -10 14 -10
30 0 17 5 30 10 30 6 0 10 -13 10 -30z m375 -30 c3 -5 1 -10 -4 -10 -6 0 -11
5 -11 10 0 6 2 10 4 10 3 0 8 -4 11 -10z m-1255 -72 c0 -16 -4 -28 -10 -28 -5
0 -10 19 -10 43 0 31 3 38 10 27 5 -8 10 -27 10 -42z m1221 19 c-7 -7 -14 -8
-21 -1 -6 6 -2 10 12 11 16 2 18 -1 9 -10z m-964 -39 c-3 -8 -6 -5 -6 6 -1 11
2 17 5 13 3 -3 4 -12 1 -19z m891 -5 c12 -12 13 -18 4 -21 -6 -2 -13 -13 -13
-25 -1 -16 -2 -18 -6 -5 -2 10 -10 15 -19 11 -10 -4 -14 3 -14 26 0 35 21 42
48 14z m-911 -15 c-3 -8 -6 -5 -6 6 -1 11 2 17 5 13 3 -3 4 -12 1 -19z m510
-40 c-3 -7 -5 -2 -5 12 0 14 2 19 5 13 2 -7 2 -19 0 -25z m-477 2 c13 -8 13
-10 -2 -10 -9 0 -20 5 -23 10 -8 13 5 13 25 0z m897 -12 c-3 -8 -6 -5 -6 6 -1
11 2 17 5 13 3 -3 4 -12 1 -19z m-523 6 c24 -9 8 -32 -20 -26 -26 5 -32 17
-11 25 6 3 13 6 14 6 1 1 8 -2 17 -5z m-644 -25 c0 -5 -7 -9 -15 -9 -9 0 -12
6 -9 15 6 15 24 11 24 -6z m400 -9 c0 -5 -4 -10 -10 -10 -5 0 -10 5 -10 10 0
6 5 10 10 10 6 0 10 -4 10 -10z m728 -17 c-10 -2 -26 -2 -35 0 -10 3 -2 5 17
5 19 0 27 -2 18 -5z m-58 -7 c0 -11 -19 -15 -25 -6 -3 5 1 10 9 10 9 0 16 -2
16 -4z m40 -16 c-8 -5 -19 -10 -25 -10 -5 0 -3 5 5 10 8 5 20 10 25 10 6 0 3
-5 -5 -10z m-1213 -55 c2 -20 -1 -35 -7 -35 -5 0 -10 19 -10 42 0 48 12 44 17
-7z m1100 5 c-1 -36 -2 -38 -18 -22 -9 9 -13 19 -9 22 3 3 9 13 13 23 10 28
16 20 14 -23z m97 9 c-2 -4 -13 -9 -24 -12 -17 -4 -19 -3 -9 9 11 13 6 18 -14
15 -5 -1 -6 3 -3 8 4 5 16 5 30 -2 13 -7 22 -15 20 -18z m-14 -35 c-17 -15
-33 -24 -36 -21 -6 6 45 47 58 47 5 0 -5 -12 -22 -26z m-10 -67 c0 -5 -7 -6
-16 -3 -9 3 -12 2 -9 -5 4 -6 14 -8 23 -4 8 3 25 -4 39 -16 27 -26 29 -36 8
-36 -8 0 -15 7 -15 14 0 8 -5 11 -12 7 -7 -5 -8 -3 -3 6 6 10 3 12 -11 8 -23
-6 -39 9 -41 39 -2 20 1 21 18 10 10 -6 19 -16 19 -20z m-70 19 c0 -2 -7 -7
-16 -10 -8 -3 -12 -2 -9 4 6 10 25 14 25 6z m-1167 -71 c4 -27 3 -35 -3 -25
-5 8 -10 28 -10 44 0 39 6 30 13 -19z m1197 -9 c-4 -4 -16 -4 -26 2 -16 9 -14
10 8 9 15 -1 23 -6 18 -11z m40 5 c0 -13 -31 -43 -38 -36 -3 3 3 14 14 24 22
23 24 24 24 12z m96 -31 c8 0 22 -13 33 -30 10 -16 20 -28 23 -25 2 3 5 -1 5
-7 0 -7 4 -22 8 -33 6 -17 4 -17 -14 4 -12 13 -21 30 -21 38 0 8 -4 11 -10 8
-5 -3 -7 0 -4 8 3 8 -6 18 -21 25 -14 7 -24 19 -24 29 1 17 2 17 6 1 2 -10 11
-18 19 -18z m-86 -20 c12 -8 9 -10 -11 -10 -15 0 -32 -7 -39 -15 -7 -8 -19
-15 -27 -15 -13 0 -13 3 -3 15 7 8 9 15 4 16 -10 1 34 16 51 18 6 0 17 -4 25
-9z m-934 -35 c5 -13 36 -15 189 -15 173 0 265 -12 235 -30 -8 -5 -2 -10 15
-14 15 -4 36 -16 48 -27 12 -11 23 -15 25 -9 5 15 23 12 38 -7 21 -28 16 -38
-7 -17 -21 19 -21 18 1 -18 12 -21 25 -36 28 -34 4 2 6 -14 5 -36 0 -22 -7
-44 -15 -49 -7 -5 -8 -9 -3 -9 7 0 7 -3 0 -8 -5 -4 -16 -18 -24 -32 l-14 -25
22 19 c21 19 21 19 15 1 -5 -12 -4 -16 4 -11 8 5 10 2 5 -9 -5 -13 -7 -14 -14
-3 -7 10 -9 8 -9 -6 0 -15 -3 -16 -14 -7 -12 10 -21 9 -43 -3 -16 -9 -21 -15
-12 -16 8 0 20 5 27 12 9 9 12 9 12 0 0 -10 -58 -31 -90 -32 -12 -1 -11 -3 3
-11 9 -5 17 -14 17 -19 0 -17 -25 -11 -43 10 -21 25 -40 25 -63 3 -16 -17 -17
-17 -11 -1 5 16 -8 17 -158 20 -90 2 -161 0 -159 -4 2 -4 0 -9 -6 -13 -5 -3
-10 -1 -10 6 0 19 -33 39 -47 28 -8 -7 -9 0 -2 28 5 21 8 89 7 151 -1 68 2
116 8 120 11 7 27 43 24 52 -2 6 -5 5 -37 -5 -14 -4 -23 -2 -23 4 0 6 9 11 20
11 11 0 20 5 20 10 0 16 30 12 36 -5z m831 9 c-3 -3 -12 -4 -19 -1 -8 3 -5 6
6 6 11 1 17 -2 13 -5z m147 -10 c3 -8 2 -12 -4 -9 -6 3 -10 10 -10 16 0 14 7
11 14 -7z m-886 -1 c-16 -2 -40 -2 -55 0 -16 2 -3 4 27 4 30 0 43 -2 28 -4z
m-222 -30 c25 -23 26 -28 12 -31 -10 -2 -18 -8 -18 -13 0 -5 -16 7 -35 27 -19
19 -35 38 -35 40 0 15 52 -1 76 -23z m614 17 c-20 -13 -47 -13 -55 0 -4 6 9
10 32 10 28 0 34 -3 23 -10z m81 -17 c5 -14 5 -23 -1 -23 -6 0 -10 7 -10 15 0
8 -7 15 -15 15 -8 0 -15 5 -15 11 0 19 33 5 41 -18z m89 -33 c0 -48 -10 -51
-28 -10 -14 32 -9 50 14 50 10 0 14 -12 14 -40z m370 30 c0 -5 -5 -10 -11 -10
-5 0 -7 5 -4 10 3 6 8 10 11 10 2 0 4 -4 4 -10z m35 -7 c7 -9 10 -23 7 -31 -4
-11 -6 -11 -13 0 -6 9 -8 5 -7 -12 2 -18 -2 -25 -14 -24 -11 1 -14 -4 -11 -14
4 -10 2 -13 -5 -8 -13 8 -8 45 10 84 14 27 17 27 33 5z m-1148 -15 c-3 -8 -6
-5 -6 6 -1 11 2 17 5 13 3 -3 4 -12 1 -19z m20 -55 c-3 -10 -5 -2 -5 17 0 19
2 27 5 18 2 -10 2 -26 0 -35z m583 37 c0 -5 -4 -10 -9 -10 -6 0 -13 5 -16 10
-3 6 1 10 9 10 9 0 16 -4 16 -10z m100 -10 c0 -11 -4 -20 -10 -20 -5 0 -10 -9
-10 -19 0 -10 -6 -21 -13 -24 -11 -4 -12 3 -4 39 10 44 37 62 37 24z m540 -21
c12 -23 19 -43 17 -46 -3 -2 -8 5 -12 16 -7 22 -16 26 -29 14 -9 -9 -36 -13
-36 -5 0 4 4 14 10 22 5 9 5 19 -2 27 -8 10 -5 13 11 13 14 0 27 -13 41 -41z
m-1570 -40 c0 -28 -15 -23 -18 7 -1 14 2 23 8 19 6 -3 10 -15 10 -26z m331 1
c22 0 26 -18 6 -26 -20 -7 -69 14 -62 27 4 6 14 8 22 5 8 -3 23 -6 34 -6z
m819 -10 c0 -5 -4 -10 -10 -10 -5 0 -10 5 -10 10 0 6 5 10 10 10 6 0 10 -4 10
-10z m245 0 c3 -5 1 -10 -4 -10 -6 0 -11 5 -11 10 0 6 2 10 4 10 3 0 8 -4 11
-10z m-1388 -62 c-3 -8 -6 -5 -6 6 -1 11 2 17 5 13 3 -3 4 -12 1 -19z m1089
-22 c8 -8 14 -31 14 -50 0 -29 -4 -36 -20 -36 -14 0 -20 7 -21 23 0 12 -3 16
-6 10 -8 -22 -23 -14 -23 11 0 53 25 72 56 42z m-1079 -38 c-3 -7 -5 -2 -5 12
0 14 2 19 5 13 2 -7 2 -19 0 -25z m33 -32 c0 -26 -6 -18 -14 19 -5 22 -4 26 4
15 5 -8 10 -24 10 -34z m-43 -8 c-3 -8 -6 -5 -6 6 -1 11 2 17 5 13 3 -3 4 -12
1 -19z m203 -18 c0 -5 -4 -10 -10 -10 -5 0 -10 5 -10 10 0 6 5 10 10 10 6 0
10 -4 10 -10z m1271 -43 c-8 -8 -11 -4 -11 14 0 33 14 47 18 19 2 -12 -1 -27
-7 -33z m76 11 c-3 -8 -6 -5 -6 6 -1 11 2 17 5 13 3 -3 4 -12 1 -19z m24 -1
c-10 -9 -11 -8 -5 6 3 10 9 15 12 12 3 -3 0 -11 -7 -18z m46 -9 c-3 -7 -5 -2
-5 12 0 14 2 19 5 13 2 -7 2 -19 0 -25z m-609 9 c6 -5 12 -19 12 -32 0 -27
-29 -62 -39 -46 -8 12 -78 -2 -94 -18 -15 -15 -24 -14 -31 5 -3 8 -2 12 4 9 6
-3 10 -1 10 4 0 6 6 10 12 9 7 -2 14 6 16 18 3 18 9 20 45 18 31 -3 37 -1 22
6 -18 8 -19 9 -1 9 11 1 16 6 13 15 -6 15 9 16 31 3z m-623 -16 c3 -5 1 -12
-4 -15 -5 -3 -11 1 -15 9 -6 16 9 21 19 6z m405 -21 c0 -5 -4 -10 -10 -10 -5
0 -10 5 -10 10 0 6 5 10 10 10 6 0 10 -4 10 -10z m767 -10 c2 -23 -13 -35 -23
-19 -5 8 -3 9 6 4 10 -6 12 -4 7 7 -3 9 -3 19 0 22 9 8 9 8 10 -14z m-1556
-69 c-14 -9 -21 -24 -21 -47 0 -19 -5 -34 -11 -34 -16 0 -4 68 16 90 8 9 15
26 15 37 0 35 15 36 18 2 3 -25 -2 -37 -17 -48z m606 59 c75 0 123 -4 123 -10
0 -12 -1 -13 -140 -16 -63 -2 -126 -4 -140 -6 -33 -4 -40 29 -8 41 13 5 27 5
33 0 5 -5 64 -9 132 -9z m1003 0 c0 -5 -5 -10 -11 -10 -5 0 -7 5 -4 10 3 6 8
10 11 10 2 0 4 -4 4 -10z m-1246 -18 c3 -5 -4 -17 -16 -26 -19 -17 -20 -17
-15 -1 4 9 7 21 7 26 0 11 17 12 24 1z m1115 -49 c1 -7 -4 -13 -10 -13 -6 0
-8 8 -5 18 6 16 5 16 -8 0 -14 -19 -56 -25 -56 -8 0 6 12 10 26 10 18 0 28 6
32 22 5 21 6 21 13 2 4 -10 8 -25 8 -31z m-89 -103 c8 -5 11 -10 5 -10 -5 0
-17 5 -25 10 -8 5 -10 10 -5 10 6 0 17 -5 25 -10z m-18 -52 c-7 -7 -12 -8 -12
-2 0 14 12 26 19 19 2 -3 -1 -11 -7 -17z m54 7 c9 -8 12 -15 7 -15 -4 0 -2 -4
5 -9 10 -6 10 -10 -3 -21 -13 -11 -15 -9 -15 9 0 24 -10 27 -29 9 -10 -11 -11
-10 -6 5 4 9 11 17 17 17 5 0 6 5 3 10 -9 15 4 12 21 -5z m-1406 -34 c0 -17
-4 -33 -10 -36 -6 -4 -10 8 -10 29 0 20 5 36 10 36 6 0 10 -13 10 -29z m1240
19 c0 -5 -7 -10 -15 -10 -8 0 -15 5 -15 10 0 6 7 10 15 10 8 0 15 -4 15 -10z
m-93 -16 c-3 -3 -12 -4 -19 -1 -8 3 -5 6 6 6 11 1 17 -2 13 -5z m117 -53 c3
-5 -1 -11 -9 -14 -9 -4 -12 -1 -8 9 6 16 10 17 17 5z m-1296 -101 c0 -48 -1
-50 -7 -20 -4 20 -10 41 -14 47 -4 6 -4 26 0 44 7 33 7 33 14 9 4 -14 7 -50 7
-80z m1246 84 c3 -8 2 -12 -4 -9 -6 3 -10 10 -10 16 0 14 7 11 14 -7z m-1305
-31 c10 -19 9 -23 -4 -23 -10 0 -15 9 -15 27 0 29 2 29 19 -4z m891 -8 c0 -19
15 -17 -171 -19 -146 -2 -156 -1 -151 16 4 16 19 18 163 18 135 0 159 -2 159
-15z m180 -6 c0 -11 -4 -17 -10 -14 -5 3 -10 13 -10 21 0 8 5 14 10 14 6 0 10
-9 10 -21z m130 17 c0 -2 -16 -6 -35 -8 -19 -2 -35 0 -35 4 0 4 16 8 35 8 19
0 35 -2 35 -4z m-710 -61 c-8 -22 -31 -27 -37 -7 -3 6 0 12 7 12 6 0 9 4 5 9
-3 6 3 9 14 8 15 -1 17 -6 11 -22z m-463 -17 c-3 -7 -5 -2 -5 12 0 14 2 19 5
13 2 -7 2 -19 0 -25z m1192 8 c-2 -2 -15 -7 -29 -10 l-25 -7 25 15 c21 12 42
14 29 2z m-406 -13 c-46 -2 -120 -2 -165 0 -46 1 -9 3 82 3 91 0 128 -2 83 -3z
m-736 -35 c-3 -8 -6 -5 -6 6 -1 11 2 17 5 13 3 -3 4 -12 1 -19z m12 -91 c0
-38 -3 -47 -9 -32 -12 29 -12 98 0 90 6 -3 10 -30 9 -58z m282 19 c6 -20 3
-32 -11 -46 -21 -21 -24 -19 -34 23 -5 20 -2 29 9 33 8 3 12 11 9 16 -4 6 -1
9 7 6 7 -2 16 -17 20 -32z m-356 -14 c6 2 12 -8 13 -22 l4 -25 -21 27 c-12 14
-21 32 -20 40 0 7 4 5 8 -5 4 -10 11 -17 16 -15z m315 -58 c0 -8 -4 -14 -10
-14 -5 0 -10 9 -10 21 0 11 5 17 10 14 6 -3 10 -13 10 -21z m80 -75 c0 -4 -14
-7 -31 -7 -18 1 -25 4 -18 9 15 9 49 8 49 -2z m37 -31 c-3 -8 -6 -5 -6 6 -1
11 2 17 5 13 3 -3 4 -12 1 -19z m-357 -12 c0 -3 -4 -8 -10 -11 -5 -3 -10 -1
-10 4 0 6 5 11 10 11 6 0 10 -2 10 -4z m367 -28 c-3 -8 -6 -5 -6 6 -1 11 2 17
5 13 3 -3 4 -12 1 -19z m-344 -10 c-4 -14 -2 -20 3 -15 5 5 9 14 9 20 0 5 6
12 13 15 8 2 12 -8 12 -33 0 -31 -2 -35 -14 -26 -11 9 -15 9 -18 -1 -4 -10 -8
-11 -20 -1 -8 7 -18 10 -22 6 -3 -4 -1 8 5 25 13 37 40 45 32 10z m-52 -21
c-8 -8 -11 -7 -11 4 0 9 3 19 7 23 4 4 9 2 11 -4 3 -7 -1 -17 -7 -23z m413 2
c-3 -6 0 -15 7 -20 7 -4 10 -11 6 -15 -4 -4 -14 1 -21 12 -15 19 -12 34 5 34
6 0 7 -5 3 -11z m-279 -53 c14 -13 10 -26 -7 -26 -5 0 -6 5 -3 10 3 6 1 10 -4
10 -6 0 -11 5 -11 10 0 14 9 12 25 -4z m-29 -77 c-1 -13 -7 -33 -14 -44 -10
-17 -13 -18 -22 -5 -12 19 -13 63 0 55 5 -3 7 -12 4 -19 -3 -8 0 -17 6 -21 8
-5 10 6 6 39 -4 39 -2 44 9 32 8 -7 13 -24 11 -37z m294 6 c0 -8 -4 -15 -9
-15 -5 0 -11 7 -15 15 -3 9 0 15 9 15 8 0 15 -7 15 -15z m110 -26 c0 -6 -4 -7
-10 -4 -5 3 -10 11 -10 16 0 6 5 7 10 4 6 -3 10 -11 10 -16z m75 -79 c3 -5 1
-10 -4 -10 -6 0 -11 5 -11 10 0 6 2 10 4 10 3 0 8 -4 11 -10z m-398 -36 c1
-24 0 -25 -15 -10 -15 15 -15 18 -2 26 8 5 15 10 15 10 0 0 1 -12 2 -26z m163
-54 c0 -13 -7 -20 -20 -20 -13 0 -20 7 -20 20 0 13 7 20 20 20 13 0 20 -7 20
-20z m198 -2 c-7 -7 -20 -14 -28 -16 -8 -1 -4 6 10 17 27 21 41 20 18 -1z
m149 -14 c-4 -4 -17 -2 -29 5 -13 6 -15 9 -5 7 9 -3 17 0 17 6 0 9 3 9 12 0 6
-6 9 -15 5 -18z m-67 -34 c19 -17 29 -30 23 -30 -7 0 -15 5 -18 10 -4 6 -10 8
-15 5 -4 -3 -11 2 -14 10 -3 8 -9 15 -13 14 -17 -3 -24 1 -18 11 9 15 17 12
55 -20z m557 14 c-3 -3 -12 -4 -19 -1 -8 3 -5 6 6 6 11 1 17 -2 13 -5z m53
-14 c0 -5 -7 -10 -15 -10 -8 0 -15 5 -15 10 0 6 7 10 15 10 8 0 15 -4 15 -10z
m-441 -6 c17 -4 31 -10 31 -15 0 -5 -12 -4 -26 1 -31 12 -37 12 -30 1 3 -5 -5
-8 -18 -8 -20 0 -22 2 -13 13 14 16 15 16 56 8z m261 2 c0 -2 -7 -7 -16 -10
-8 -3 -12 -2 -9 4 6 10 25 14 25 6z m104 -22 c-26 -12 -26 -13 -4 -8 19 4 22
3 10 -5 -22 -15 -40 -13 -40 4 0 9 10 19 23 24 34 13 44 0 11 -15z m-155 5
c-8 -5 -23 -9 -34 -9 -12 0 -26 -5 -32 -11 -7 -7 -20 -9 -30 -5 -14 6 -15 9
-3 16 8 5 18 6 22 4 4 -3 14 -1 22 3 21 12 73 14 55 2z m-699 -25 c0 -8 -5
-12 -10 -9 -6 4 -8 11 -5 16 9 14 15 11 15 -7z m126 8 c-5 -8 -76 -4 -76 4 0
2 18 4 41 4 22 0 38 -4 35 -8z m109 -2 c3 -5 -1 -10 -9 -10 -9 0 -16 5 -16 10
0 6 4 10 9 10 6 0 13 -4 16 -10z m542 4 c-3 -3 -12 -4 -19 -1 -8 3 -5 6 6 6
11 1 17 -2 13 -5z m-578 -50 c3 -4 -2 -4 -11 -1 -10 4 -18 2 -18 -3 0 -5 -7
-7 -15 -4 -28 11 -16 -27 15 -44 16 -9 30 -21 30 -25 0 -9 -10 -4 -51 24 -14
10 -28 16 -31 14 -2 -2 -9 4 -15 14 -10 16 -8 20 13 25 14 4 22 11 19 16 -6
10 54 -5 64 -16z m-127 -6 c-7 -7 -12 -8 -12 -2 0 6 3 14 7 17 3 4 9 5 12 2 2
-3 -1 -11 -7 -17z m288 -8 c0 -5 -4 -10 -10 -10 -5 0 -10 5 -10 10 0 6 5 10
10 10 6 0 10 -4 10 -10z m-267 -17 c-7 -2 -19 -2 -25 0 -7 3 -2 5 12 5 14 0
19 -2 13 -5z"/>
<path d="M4630 5260 c0 -5 5 -10 10 -10 6 0 10 5 10 10 0 6 -4 10 -10 10 -5 0
-10 -4 -10 -10z"/>
<path d="M2470 4689 c0 -5 5 -7 10 -4 6 3 10 8 10 11 0 2 -4 4 -10 4 -5 0 -10
-5 -10 -11z"/>
<path d="M2358 3803 c7 -3 16 -2 19 1 4 3 -2 6 -13 5 -11 0 -14 -3 -6 -6z"/>
<path d="M2483 3553 c9 -2 23 -2 30 0 6 3 -1 5 -18 5 -16 0 -22 -2 -12 -5z"/>
<path d="M2554 3543 c10 -11 56 -11 50 -1 -3 4 -17 8 -31 8 -15 0 -23 -3 -19
-7z"/>
<path d="M2155 3100 c3 -6 -1 -7 -9 -4 -9 3 -16 2 -16 -4 0 -18 43 -22 220
-21 138 1 168 3 140 11 -19 6 -29 13 -22 15 7 3 27 0 44 -6 34 -12 52 -6 28 9
-21 13 -393 13 -385 0z m40 -10 c3 -5 1 -10 -4 -10 -6 0 -11 5 -11 10 0 6 2
10 4 10 3 0 8 -4 11 -10z"/>
<path d="M2568 2763 c6 -2 18 -2 25 0 6 3 1 5 -13 5 -14 0 -19 -2 -12 -5z"/>
<path d="M3265 3036 c0 -13 3 -22 8 -19 4 2 7 13 7 24 0 10 -3 19 -7 19 -5 0
-8 -11 -8 -24z"/>
<path d="M3958 5803 c7 -3 16 -2 19 1 4 3 -2 6 -13 5 -11 0 -14 -3 -6 -6z"/>
<path d="M4008 5793 c6 -2 18 -2 25 0 6 3 1 5 -13 5 -14 0 -19 -2 -12 -5z"/>
<path d="M4430 5682 c0 -6 6 -13 13 -15 7 -3 5 -6 -5 -6 -21 -1 -25 -21 -4
-21 20 0 27 27 10 40 -9 8 -14 9 -14 2z"/>
<path d="M4468 5644 c-8 -7 22 -74 33 -74 4 0 6 11 5 26 -3 27 -28 59 -38 48z
m20 -29 c-3 -3 -9 2 -12 12 -6 14 -5 15 5 6 7 -7 10 -15 7 -18z"/>
<path d="M3161 5461 c-17 -16 -37 -32 -44 -34 -6 -3 -2 -6 9 -6 12 -1 27 6 34
14 7 8 9 15 5 15 -4 0 3 9 16 20 13 10 21 19 18 20 -4 0 -21 -13 -38 -29z"/>
<path d="M2820 5460 c-8 -5 -12 -12 -9 -15 4 -3 12 1 19 10 14 17 11 19 -10 5z"/>
<path d="M2775 5430 c-16 -7 -17 -9 -3 -9 9 -1 20 4 23 9 7 11 7 11 -20 0z"/>
<path d="M2743 5408 c1 -7 -10 -13 -25 -13 -33 -1 -42 -9 -43 -38 0 -22 -6
-24 -37 -12 -12 5 -18 2 -18 -6 0 -7 3 -10 6 -6 4 3 13 0 21 -8 12 -13 17 -12
37 8 13 12 38 34 55 48 23 21 27 28 16 33 -8 3 -14 0 -12 -6z m-23 -26 c0 -15
-11 -21 -27 -15 -12 5 -12 7 -1 14 17 11 28 11 28 1z"/>
<path d="M2650 5360 c0 -5 5 -10 11 -10 5 0 7 5 4 10 -3 6 -8 10 -11 10 -2 0
-4 -4 -4 -10z"/>
<path d="M2584 5322 c-6 -4 -10 -15 -8 -25 2 -13 -2 -17 -12 -13 -25 10 -91
-33 -76 -49 4 -5 0 -6 -9 -2 -9 3 -29 -5 -45 -19 -16 -13 -24 -23 -17 -24 6 0
15 5 18 10 4 6 14 10 23 9 31 -3 43 1 37 11 -3 6 -1 10 5 10 6 0 9 4 6 9 -3 5
1 14 10 21 13 11 14 9 9 -17 -6 -34 15 -52 35 -28 8 10 7 17 -5 28 -9 10 -11
18 -5 22 5 3 10 2 10 -3 0 -6 7 -12 14 -15 10 -4 13 -1 9 9 -3 8 0 21 7 29 6
8 9 19 5 24 -3 7 0 8 9 5 19 -7 21 -31 4 -37 -7 -2 -11 -7 -8 -10 3 -3 16 4
29 14 14 12 20 23 15 28 -15 14 -48 21 -60 13z"/>
<path d="M2913 5246 c6 -14 4 -17 -8 -12 -9 3 -15 0 -15 -9 0 -18 10 -19 33
-1 16 13 16 14 0 27 -15 12 -16 12 -10 -5z"/>
<path d="M4721 5186 c13 -46 10 -55 -7 -21 -12 26 -14 27 -9 5 2 -14 5 -28 5
-32 0 -5 7 -8 16 -8 12 0 15 -5 9 -22 -13 -39 -11 -103 3 -100 6 1 12 -2 12
-7 0 -5 12 -17 28 -26 15 -10 21 -12 15 -4 -7 7 -13 22 -14 34 0 20 0 20 -9 0
-8 -19 -9 -19 -9 3 -1 12 4 22 9 22 6 0 10 5 10 11 0 5 -4 8 -9 5 -11 -7 -34
120 -25 136 5 7 3 8 -6 3 -10 -6 -12 -3 -8 12 3 12 0 20 -7 20 -9 0 -10 -8 -4
-31z"/>
<path d="M2440 5185 c0 -8 5 -15 10 -15 6 0 10 7 10 15 0 8 -4 15 -10 15 -5 0
-10 -7 -10 -15z"/>
<path d="M2485 5190 c-11 -5 -16 -9 -12 -9 4 -1 -1 -11 -12 -23 -16 -16 -18
-25 -9 -35 13 -16 28 -5 33 23 1 11 8 18 13 17 6 -2 9 4 6 12 -5 11 -2 13 10
9 9 -3 16 -1 16 5 0 13 -17 13 -45 1z"/>
<path d="M2390 5181 c0 -11 31 -24 39 -16 3 3 -1 10 -9 15 -19 12 -30 12 -30
1z"/>
<path d="M2370 5160 c0 -5 7 -10 16 -10 8 0 12 5 9 10 -3 6 -10 10 -16 10 -5
0 -9 -4 -9 -10z"/>
<path d="M3364 5145 c6 -18 -5 -20 -21 -4 -8 8 -19 4 -40 -15 -29 -28 -21 -36
11 -11 11 8 25 15 30 15 6 0 2 -7 -9 -16 -64 -48 -75 -58 -75 -66 0 -5 27 13
60 39 56 45 75 73 49 73 -6 0 -9 -7 -5 -15z"/>
<path d="M2331 5129 c-13 -11 -21 -22 -18 -25 3 -3 15 4 26 15 12 12 21 16 21
10 0 -7 8 -18 18 -25 15 -12 15 -15 2 -24 -8 -5 -22 -9 -30 -9 -11 1 -10 3 3
6 9 2 17 8 17 13 0 14 -18 21 -24 11 -4 -5 -17 -8 -30 -5 -17 3 -31 -6 -54
-31 -37 -40 -40 -50 -12 -35 11 6 20 17 20 25 0 8 5 15 10 15 16 0 7 -23 -18
-48 -19 -18 -27 -20 -38 -11 -12 10 -18 8 -30 -9 -8 -12 -31 -37 -51 -55 -31
-30 -34 -37 -24 -55 12 -23 37 -31 28 -9 -6 15 17 37 29 29 13 -10 16 -32 5
-32 -5 0 -12 6 -15 13 -4 6 -4 2 -2 -10 3 -15 -1 -23 -10 -23 -8 0 -14 -4 -14
-8 0 -5 -16 -26 -35 -48 -19 -21 -35 -35 -35 -30 0 6 -6 1 -14 -10 -8 -11 -11
-23 -6 -29 5 -6 10 -28 12 -50 2 -32 -1 -42 -17 -50 -11 -6 -21 -21 -23 -33
-2 -12 -7 -22 -11 -22 -14 0 -51 -37 -44 -44 3 -3 1 -6 -5 -6 -27 0 0 62 34
81 13 7 24 18 24 25 0 7 8 18 18 23 15 10 16 12 1 24 -25 19 -32 52 -14 67 9
7 21 23 27 34 6 12 -12 0 -39 -27 -27 -26 -52 -45 -54 -42 -3 3 -13 -3 -23
-14 -15 -16 -15 -19 -1 -31 8 -7 15 -8 15 -2 0 5 7 12 15 16 13 5 14 2 4 -17
-7 -12 -12 -23 -11 -24 8 -12 -1 -13 -14 -2 -13 10 -17 10 -24 0 -4 -8 -13
-11 -19 -7 -7 5 -9 1 -5 -8 3 -9 10 -13 15 -10 14 8 11 -12 -4 -24 -7 -7 -18
-7 -27 -2 -10 6 -21 -4 -42 -36 -30 -47 -34 -59 -18 -49 6 3 7 -1 4 -9 -3 -9
-10 -14 -14 -11 -11 7 -33 -22 -26 -34 6 -10 -38 -94 -45 -86 -3 2 -5 -4 -5
-14 0 -15 6 -18 25 -14 32 5 41 11 41 27 0 22 34 46 50 36 13 -8 12 -10 -2
-10 -15 0 -24 -20 -15 -34 1 -2 -6 -13 -16 -24 -10 -11 -20 -36 -24 -56 -3
-19 -13 -41 -21 -48 -13 -11 -15 -10 -9 10 4 16 -1 30 -14 43 -11 11 -18 23
-15 27 2 4 -2 15 -9 25 -8 12 -15 14 -20 7 -3 -5 -9 -8 -13 -6 -4 2 -26 1 -49
-4 -23 -4 -45 -5 -48 -1 -10 9 -155 9 -155 -1 0 -6 -63 -8 -150 -5 -83 2 -149
2 -146 0 5 -6 52 -11 101 -12 26 -1 35 -4 26 -10 -7 -5 -28 -5 -47 -1 -26 6
-34 5 -34 -6 0 -10 12 -14 39 -14 38 0 63 -22 40 -35 -5 -4 -8 -1 -7 6 2 6 -3
14 -10 16 -17 6 -5 -45 16 -69 8 -10 12 -18 8 -18 -4 0 -2 -8 3 -18 7 -13 7
-22 0 -29 -7 -7 -5 -23 5 -49 13 -33 14 -36 1 -20 -15 19 -15 19 -40 -4 -27
-26 -25 -40 9 -40 12 0 28 -6 35 -12 10 -11 12 -10 11 2 -1 8 1 24 5 36 6 19
13 20 111 18 84 -1 109 -5 125 -20 24 -21 26 -42 2 -23 -11 9 -9 3 6 -19 12
-18 20 -39 17 -47 -2 -7 0 -16 7 -19 7 -2 5 -5 -4 -5 -9 -1 -24 -11 -35 -23
l-19 -23 24 20 c17 14 23 16 19 5 -9 -29 -47 -37 -170 -35 -68 0 -111 -1 -95
-3 36 -4 25 -22 -14 -22 -18 0 -28 4 -24 10 3 6 -3 10 -15 10 -12 0 -18 -4
-15 -10 3 -5 -3 -10 -15 -10 -13 0 -19 4 -14 11 4 8 -6 9 -37 5 -33 -4 -39 -3
-24 4 16 8 15 9 -10 4 -16 -3 -78 -5 -137 -5 -98 1 -107 0 -105 -17 1 -14 7
-18 22 -14 11 3 24 10 28 16 6 7 7 5 4 -5 -4 -14 5 -17 56 -22 35 -3 70 -1 81
5 15 8 21 8 24 -1 2 -6 18 -11 35 -11 18 0 27 -4 20 -8 -6 -4 -71 -7 -142 -7
-72 0 -131 -4 -131 -8 0 -4 -6 -2 -14 5 -7 7 -11 20 -8 28 3 9 -2 6 -11 -5 -9
-11 -17 -26 -17 -33 0 -7 -5 -10 -10 -7 -7 4 -3 19 10 42 23 40 17 52 -30 54
-14 0 -46 3 -72 5 -26 3 -49 1 -53 -5 -4 -7 6 -9 27 -6 19 3 26 2 18 -2 -20
-10 -26 -63 -8 -74 21 -14 25 -11 20 21 -6 40 10 58 48 52 27 -4 30 -8 30 -38
0 -35 -22 -56 -49 -46 -8 2 -11 0 -7 -6 3 -6 -2 -13 -11 -15 -10 -3 9 -3 42
-1 44 2 55 1 40 -7 -16 -7 -14 -8 10 -3 17 3 37 12 46 20 10 9 36 13 85 11 38
-1 166 2 286 7 197 8 256 4 231 -13 -5 -3 -17 -22 -26 -43 -13 -27 -15 -43 -7
-62 5 -14 7 -32 4 -39 -3 -8 0 -26 6 -41 8 -21 7 -25 -3 -20 -8 5 -8 3 2 -9 7
-9 11 -24 7 -32 -3 -9 1 -27 10 -41 11 -16 12 -24 4 -24 -7 0 -9 -8 -6 -20 3
-11 9 -29 12 -40 4 -15 -1 -21 -20 -26 -14 -3 -26 -13 -26 -20 0 -8 -8 -27
-17 -41 -10 -15 -13 -24 -8 -21 13 8 39 -12 43 -34 4 -24 -15 -23 -27 1 -6 10
-22 22 -36 25 -14 4 -24 10 -24 14 1 4 1 14 0 22 -1 13 -3 13 -10 0 -10 -17
-3 -80 9 -80 4 0 6 -15 4 -32 -3 -31 -3 -32 11 -14 8 11 15 26 15 33 0 7 4 13
9 13 5 0 9 -26 9 -57 0 -32 -2 -51 -5 -43 -2 8 -7 21 -9 29 -3 10 -8 10 -18 2
-7 -6 -15 -8 -18 -5 -3 2 -8 -2 -11 -10 -3 -8 0 -19 7 -25 10 -8 11 -23 4 -58
-5 -27 -10 -60 -10 -75 -2 -54 -18 -16 -20 45 -2 60 -2 60 -5 12 -2 -27 0 -75
5 -105 7 -41 10 -47 11 -22 1 19 5 31 11 27 13 -8 13 -52 0 -60 -5 -3 -6 -13
-3 -22 5 -12 3 -14 -7 -8 -10 6 -11 -3 -7 -41 3 -27 10 -62 16 -77 6 -16 11
-38 10 -50 -1 -21 -2 -20 -10 3 -7 21 -8 20 -4 -9 3 -18 5 -38 5 -43 0 -5 5
-6 11 -2 6 3 15 0 20 -7 7 -11 9 -11 9 3 0 9 -4 20 -10 23 -5 3 -10 12 -10 18
0 8 3 8 9 -1 6 -10 10 -6 15 14 5 18 3 30 -3 32 -6 2 -11 8 -11 14 0 6 6 8 14
5 12 -5 13 -1 7 49 0 6 -8 11 -16 11 -17 0 -20 -13 -5 -22 6 -3 10 -12 10 -18
0 -7 -4 -6 -10 3 -8 12 -10 8 -11 -15 -1 -28 -2 -28 -10 9 -6 27 -5 46 3 64
14 27 38 42 38 23 0 -6 -8 -11 -17 -11 -14 0 -15 -2 -4 -12 10 -11 15 -9 24 7
14 26 18 47 6 39 -11 -7 -11 7 0 25 5 7 14 10 21 6 8 -5 11 11 9 61 -2 53 1
69 11 69 16 0 32 52 24 79 -4 13 -3 16 6 11 9 -5 11 -4 6 3 -4 6 -2 21 4 32 9
16 8 18 -5 14 -8 -4 -16 -16 -16 -28 -2 -20 -3 -38 -7 -78 -2 -19 -32 -26 -32
-7 0 5 4 8 9 4 13 -7 23 28 15 49 -4 10 -12 15 -18 13 -9 -4 -11 5 -8 27 3 17
7 24 9 16 12 -41 16 -44 22 -15 4 18 16 35 31 42 14 7 19 13 13 13 -18 0 -16
60 2 74 11 8 13 23 9 63 -4 29 -9 52 -13 51 -21 -2 -23 4 -4 17 14 10 20 24
19 44 -1 16 2 27 7 24 5 -3 7 5 6 18 -4 31 10 71 22 64 5 -4 9 -19 9 -35 0
-16 5 -32 12 -36 6 -4 8 -3 5 3 -3 5 -1 26 5 47 6 20 14 32 18 26 3 -5 6 16 6
48 1 32 6 67 13 78 11 17 11 17 5 -6 -7 -28 -5 -27 21 15 14 23 15 27 3 17
-14 -11 -18 -11 -25 1 -12 20 -39 27 -52 14 -8 -8 -11 -5 -11 11 0 27 14 28
50 2 23 -16 29 -17 33 -5 4 8 4 23 2 35 -2 11 0 18 6 15 5 -4 9 0 9 7 0 10 3
9 11 -2 7 -11 8 -3 4 28 -7 43 5 72 28 72 6 0 2 -6 -8 -14 -19 -14 -14 -53 6
-41 6 4 8 13 5 20 -2 7 0 17 5 22 13 13 -6 63 -24 63 -8 0 -19 11 -25 25 -6
14 -17 25 -23 25 -8 0 -8 -4 1 -15 7 -8 8 -15 3 -15 -6 0 -13 -20 -16 -45 -6
-56 -13 -64 -32 -39 -15 19 -15 19 -9 -1 4 -15 4 -17 -4 -6 -11 15 -5 41 12
54 7 5 3 6 -8 3 -13 -5 -17 -2 -13 9 4 8 -1 22 -10 30 -8 9 -13 18 -11 21 3 2
10 -2 17 -10 17 -20 51 -8 50 18 0 11 -3 15 -6 9 -7 -18 -24 -16 -48 5 -28 23
-28 62 0 62 14 0 21 -6 21 -19 0 -11 -5 -17 -13 -14 -18 7 -16 -5 2 -24 12
-12 19 -13 30 -3 8 7 15 9 15 6 0 -4 9 -2 21 5 26 14 54 -6 29 -21 -12 -8 -12
-10 4 -16 10 -4 14 -10 9 -13 -4 -3 4 -18 20 -33 28 -27 35 -22 17 13 -7 13
-7 19 0 19 5 0 10 -4 10 -10 0 -5 4 -10 10 -10 5 0 6 7 3 17 -4 11 -3 14 5 9
7 -4 12 -3 12 3 0 5 3 18 6 28 5 15 4 16 -5 3 -9 -12 -10 -10 -5 12 4 19 1 29
-13 38 -13 8 -14 13 -5 16 6 3 12 19 12 34 0 16 4 31 8 34 5 3 6 -8 4 -25 -3
-17 0 -29 7 -29 9 0 14 24 10 56 0 6 43 32 48 29 2 -1 -11 -28 -27 -61 -16
-32 -30 -53 -30 -46 0 6 -4 12 -9 12 -5 0 -4 -10 2 -23 10 -21 12 -19 44 41
24 46 32 70 26 85 -9 28 -4 110 9 118 5 3 22 5 37 4 26 -1 33 6 65 65 20 37
36 76 36 86 0 14 -4 12 -15 -10 -8 -15 -15 -35 -15 -43 0 -8 -4 -12 -9 -9 -16
10 1 54 31 81 30 27 30 27 23 3 -5 -17 -1 -15 14 10 23 36 26 46 11 37 -6 -3
-7 1 -4 9 3 9 10 14 14 11 13 -8 18 18 9 43 -7 18 -5 22 11 22 11 0 20 -5 20
-11 0 -5 -4 -7 -10 -4 -5 3 -10 1 -10 -4 0 -19 19 -12 31 10 8 15 8 19 0 15
-17 -11 -14 2 16 66 16 32 34 58 41 58 9 0 11 7 7 23 -6 20 -5 21 8 5 17 -22
31 -24 24 -4 -4 9 -1 13 6 11 7 -3 35 27 62 66 28 38 60 80 73 91 14 14 20 28
16 40 -4 14 -1 17 13 12 13 -4 14 -3 5 3 -10 7 -8 14 8 28 20 18 21 18 14 -1
-8 -20 -6 -20 16 10 12 16 12 18 1 12 -9 -6 -12 -5 -9 5 3 8 14 13 24 11 11
-2 15 0 8 5 -6 4 -13 15 -16 24 -5 13 -2 16 14 11 13 -3 19 -1 15 5 -4 6 -17
13 -29 16 -13 2 -30 7 -38 10 -8 4 -26 -3 -39 -14z m0 -107 c-6 -2 -11 -11
-12 -20 0 -12 -3 -10 -10 6 -12 31 -2 47 18 30 10 -8 11 -14 4 -16z m-31 -28
c9 -22 13 -24 25 -14 23 19 18 4 -8 -24 -22 -24 -25 -24 -40 -8 -16 15 -17 15
-17 -1 0 -9 5 -17 10 -17 6 0 10 -4 10 -10 0 -17 -15 -11 -29 12 -12 19 -11
23 5 36 18 13 17 14 -6 7 -22 -7 -23 -6 -12 8 8 9 20 13 28 10 8 -3 14 1 14
11 0 24 9 19 20 -10z m-87 -1 c-7 -2 -9 -11 -6 -19 3 -8 0 -14 -7 -14 -6 0 -8
-5 -5 -10 5 -8 11 -8 20 0 9 8 14 5 18 -10 3 -12 1 -18 -5 -14 -7 5 -9 -2 -6
-19 4 -18 1 -24 -9 -20 -7 3 -13 14 -13 24 0 19 -7 22 -45 20 -18 -1 -17 0 3
9 12 5 25 18 29 27 9 26 25 44 32 37 3 -4 1 -9 -6 -11z m26 -138 c-17 -25 -35
-42 -41 -39 -7 4 -4 10 6 16 9 5 23 22 31 38 9 17 20 30 25 30 5 0 -4 -20 -21
-45z m-37 -7 c-6 -6 -12 -4 -16 7 -3 9 -2 13 4 10 6 -3 10 0 11 7 0 10 2 10 6
0 3 -8 1 -18 -5 -24z m-22 -8 c0 -5 -6 -10 -12 -10 -9 0 -8 -3 2 -10 12 -7 10
-9 -7 -7 -17 1 -20 5 -12 19 10 19 29 24 29 8z m-70 -70 c0 -5 -4 -10 -10 -10
-5 0 -10 5 -10 10 0 6 5 10 10 10 6 0 10 -4 10 -10z m-150 -74 c0 -3 -4 -8
-10 -11 -5 -3 -10 -1 -10 4 0 6 5 11 10 11 6 0 10 -2 10 -4z m-92 -146 c-10
-29 -28 -50 -28 -33 0 15 25 63 32 63 4 0 2 -14 -4 -30z m49 -23 c6 1 14 -4
17 -13 3 -8 2 -12 -4 -9 -6 3 -10 1 -10 -4 0 -6 7 -11 15 -11 12 0 13 -4 5
-19 -13 -26 -13 -58 1 -63 15 -5 -22 -68 -40 -68 -11 0 -10 4 4 13 10 8 15 19
11 25 -4 8 0 12 10 12 14 0 15 3 6 12 -7 7 -12 27 -12 45 0 23 -5 33 -15 33
-8 0 -15 -6 -15 -12 0 -10 -2 -10 -9 0 -9 15 -8 34 4 77 l9 30 6 -25 c4 -14
12 -24 17 -23z m85 11 c-6 -6 -15 -8 -19 -4 -4 4 -1 11 7 16 19 12 27 3 12
-12z m-179 -90 c-3 -17 -2 -19 5 -9 7 9 12 10 16 2 4 -6 12 -9 17 -6 5 3 6 0
3 -8 -3 -8 -16 -14 -30 -14 -18 0 -24 5 -24 22 0 18 7 35 16 35 1 0 0 -10 -3
-22z m-140 -155 c24 -7 26 -10 15 -26 -13 -17 -16 -17 -43 -3 -17 9 -50 16
-75 16 -56 0 -92 9 -84 22 6 10 144 4 187 -9z m-303 -33 c0 -6 -11 -8 -27 -4
-40 10 -41 14 -5 14 18 0 32 -5 32 -10z m88 -7 c-10 -2 -28 -2 -40 0 -13 2 -5
4 17 4 22 1 32 -1 23 -4z m-158 -74 c0 -11 -4 -17 -10 -14 -5 3 -10 13 -10 21
0 8 5 14 10 14 6 0 10 -9 10 -21z m393 -16 c-7 -2 -19 -2 -25 0 -7 3 -2 5 12
5 14 0 19 -2 13 -5z m-353 -44 c0 -5 -4 -9 -10 -9 -5 0 -10 7 -10 16 0 8 5 12
10 9 6 -3 10 -10 10 -16z m47 -35 c-3 -3 -12 -4 -19 -1 -8 3 -5 6 6 6 11 1 17
-2 13 -5z m86 -1 c-7 -2 -19 -2 -25 0 -7 3 -2 5 12 5 14 0 19 -2 13 -5z m-46
-9 c-3 -3 -12 -4 -19 -1 -8 3 -5 6 6 6 11 1 17 -2 13 -5z m318 -54 c3 -6 -1
-13 -10 -16 -19 -8 -30 0 -20 15 8 14 22 14 30 1z m-55 -87 c0 -15 -2 -16 -10
-3 -8 13 -10 12 -10 -3 0 -10 -5 -15 -10 -12 -8 5 -7 11 1 21 16 19 29 18 29
-3z m-243 -78 c0 -8 -4 -15 -9 -15 -4 0 -8 5 -8 11 0 6 -7 9 -15 5 -8 -3 -15
-1 -15 4 0 6 11 10 23 10 14 0 24 -6 24 -15z m135 8 c-6 -2 -10 -9 -6 -14 3
-5 1 -9 -5 -9 -5 0 -12 4 -15 9 -6 9 10 19 29 19 6 0 4 -2 -3 -5z m48 -23 c0
-5 -7 -7 -15 -4 -8 4 -12 10 -9 15 6 11 24 2 24 -11z m-583 4 c-3 -3 -12 -4
-19 -1 -8 3 -5 6 6 6 11 1 17 -2 13 -5z m457 -3 c3 -5 22 -9 41 -8 43 1 54 -9
29 -28 -24 -18 -29 -18 -48 0 -24 24 -33 -9 -12 -45 7 -12 7 -13 -5 -2 -8 7
-14 18 -14 25 0 6 -10 17 -23 23 -20 10 -21 12 -6 18 10 4 21 2 24 -5 5 -7 10
-8 14 -1 4 6 -2 15 -11 21 -10 6 -13 11 -6 11 6 0 14 -4 17 -9z m-331 -8 c-13
-2 -33 -2 -45 0 -13 2 -3 4 22 4 25 0 35 -2 23 -4z m85 0 c-10 -2 -28 -2 -40
0 -13 2 -5 4 17 4 22 1 32 -1 23 -4z m80 0 c-10 -2 -26 -2 -35 0 -10 3 -2 5
17 5 19 0 27 -2 18 -5z m-71 -20 c-20 -2 -52 -2 -70 0 -17 2 0 4 38 4 39 0 53
-2 32 -4z m151 0 c-15 -2 -42 -2 -60 0 -18 2 -6 4 27 4 33 0 48 -2 33 -4z m77
-90 c-3 -7 -8 -20 -11 -28 -3 -8 -1 -15 5 -15 6 0 11 8 12 18 0 12 3 10 10 -7
9 -23 10 -24 24 -5 14 18 14 18 15 0 0 -13 5 -16 18 -12 16 6 16 5 0 -8 -10
-7 -18 -21 -18 -30 0 -10 -7 -16 -17 -14 -12 2 -18 -4 -18 -17 0 -11 -8 -21
-17 -23 -15 -3 -17 2 -14 30 2 18 -1 45 -6 61 -7 20 -7 32 3 43 8 10 9 18 2
25 -8 8 -13 2 -18 -20 -4 -17 -11 -31 -16 -31 -12 0 -12 4 8 45 16 33 18 35
30 18 8 -9 11 -23 8 -30z m99 -8 c-4 -8 -10 -15 -15 -15 -5 0 -9 7 -9 15 0 8
7 15 15 15 9 0 12 -6 9 -15z m-10 -97 c-8 -28 -12 -33 -20 -25 -4 4 -2 13 4
20 7 8 9 17 5 20 -3 4 -1 7 6 7 8 0 10 -8 5 -22z m-84 -248 c0 -5 -2 -10 -4
-10 -3 0 -8 5 -11 10 -3 6 -1 10 4 10 6 0 11 -4 11 -10z m-20 -120 c0 -5 -4
-10 -10 -10 -5 0 -10 5 -10 10 0 6 5 10 10 10 6 0 10 -4 10 -10z m-23 -42 c-3
-8 -6 -5 -6 6 -1 11 2 17 5 13 3 -3 4 -12 1 -19z m-27 -213 c0 -8 -2 -15 -4
-15 -2 0 -6 7 -10 15 -3 8 -1 15 4 15 6 0 10 -7 10 -15z m-25 -64 c-3 -6 -11
-11 -17 -11 -6 0 -6 6 2 15 14 17 26 13 15 -4z m-21 -206 c3 -8 1 -15 -4 -15
-6 0 -10 7 -10 15 0 8 2 15 4 15 2 0 6 -7 10 -15z"/>
<path d="M2282 4971 c4 -13 18 -16 19 -4 0 4 -5 9 -11 12 -7 2 -11 -2 -8 -8z"/>
<path d="M1891 4504 c0 -11 3 -14 6 -6 3 7 2 16 -1 19 -3 4 -6 -2 -5 -13z"/>
<path d="M4751 4944 c0 -11 3 -14 6 -6 3 7 2 16 -1 19 -3 4 -6 -2 -5 -13z"/>
<path d="M4771 4948 c0 -9 -4 -25 -7 -35 -4 -14 -4 -15 4 -4 5 7 15 10 21 7 6
-4 11 -2 11 3 0 6 -4 11 -9 11 -5 0 -12 8 -14 18 -4 15 -5 15 -6 0z"/>
<path d="M2090 4884 c0 -8 5 -12 10 -9 6 3 10 10 10 16 0 5 -4 9 -10 9 -5 0
-10 -7 -10 -16z"/>
<path d="M4780 4895 c0 -2 7 -8 15 -15 12 -10 15 -10 15 2 0 8 -7 15 -15 15
-8 0 -15 -1 -15 -2z"/>
<path d="M2043 4836 c-18 -24 -33 -47 -33 -51 0 -10 31 22 49 50 12 20 12 20
6 -1 -4 -17 -1 -20 17 -19 13 1 21 4 18 8 -3 3 4 12 14 20 12 9 15 16 8 21 -6
3 -13 2 -17 -4 -9 -14 -23 -12 -27 4 -2 9 -15 -2 -35 -28z"/>
<path d="M4811 4827 c0 -10 -5 -16 -10 -13 -5 4 -4 -5 2 -19 11 -23 12 -23 15
-5 2 11 1 28 -1 38 -4 16 -5 15 -6 -1z"/>
<path d="M1976 4755 c-17 -25 -16 -25 4 -13 11 7 20 18 20 25 0 19 -6 16 -24
-12z"/>
<path d="M2118 4695 c-18 -41 -8 -48 13 -7 8 15 18 30 24 34 6 5 4 8 -5 8 -9
0 -23 -16 -32 -35z"/>
<path d="M1880 4611 c0 -6 4 -13 10 -16 6 -3 7 1 4 9 -7 18 -14 21 -14 7z"/>
<path d="M2760 4506 c0 -8 6 -16 14 -19 10 -4 12 0 9 14 -6 22 -23 26 -23 5z"/>
<path d="M500 4390 c-18 -12 -2 -12 25 0 13 6 15 9 5 9 -8 0 -22 -4 -30 -9z"/>
<path d="M538 4383 c-10 -2 -15 -10 -11 -19 6 -16 -12 -19 -22 -4 -3 6 -11 10
-17 10 -6 0 -3 -8 8 -19 10 -10 23 -16 28 -13 18 10 67 12 61 2 -3 -6 0 -10 7
-10 9 0 9 -3 -2 -10 -9 -6 -10 -10 -3 -10 6 0 14 -8 16 -17 3 -10 4 -1 3 19
-2 33 -29 80 -45 77 -3 -1 -14 -3 -23 -6z m42 -18 c0 -12 -19 -12 -23 0 -4 9
-1 12 9 8 7 -3 14 -7 14 -8z"/>
<path d="M4230 4370 c-69 -15 -147 -58 -178 -98 -15 -20 -114 -149 -221 -287
-107 -137 -224 -288 -260 -335 -36 -47 -93 -121 -128 -165 -35 -44 -63 -85
-63 -91 0 -6 16 -45 35 -86 80 -175 115 -357 115 -606 l0 -174 203 284 c612
855 601 839 613 826 7 -7 230 -339 497 -738 370 -554 487 -737 496 -774 26
-106 65 -152 131 -157 116 -7 134 7 128 102 -8 113 -53 179 -123 179 -19 0
-36 23 -105 140 -72 122 -88 144 -124 162 -68 34 -98 59 -113 96 -19 46 -9
104 26 141 63 68 133 48 179 -51 17 -35 33 -79 37 -98 6 -33 31 -72 253 -396
75 -112 92 -143 92 -173 0 -94 58 -178 137 -200 104 -29 135 -5 135 107 0 109
-40 161 -134 177 -39 7 -42 11 -297 394 -249 373 -260 387 -307 409 -63 30
-122 84 -141 130 -39 94 49 187 140 148 42 -18 63 -42 106 -126 31 -61 121
-207 237 -388 19 -28 39 -73 44 -100 24 -108 87 -172 169 -172 26 0 52 5 59
12 17 17 15 151 -2 191 -16 40 -69 86 -107 94 -29 6 -53 33 -158 183 -29 41
-107 152 -174 247 -67 94 -189 267 -272 384 -82 117 -190 269 -239 338 -143
201 -157 222 -212 301 -72 104 -96 125 -167 150 -71 24 -234 35 -307 20z
m1573 -1742 c8 -26 -5 -48 -29 -48 -26 0 -40 20 -30 45 7 18 53 20 59 3z
m-288 -518 c0 -20 -5 -25 -25 -25 -20 0 -26 6 -28 28 -3 26 -1 28 25 25 22 -2
28 -8 28 -28z m383 -104 c-4 -28 -43 -34 -57 -9 -11 21 -4 37 19 45 21 8 41
-12 38 -36z"/>
<path d="M459 4328 c-1 -13 0 -27 1 -33 2 -5 2 -18 2 -27 -1 -12 7 -18 22 -18
13 0 29 -7 36 -15 15 -18 -1 -20 -18 -3 -15 15 -24 7 -13 -11 6 -9 18 -11 42
-6 19 5 28 10 22 12 -27 9 -11 21 23 18 26 -2 40 2 52 16 11 13 18 15 23 7 5
-8 12 -9 21 -2 7 6 24 9 38 7 14 -1 37 -3 53 -4 29 -2 39 -19 10 -19 -9 0 -13
-3 -10 -6 4 -4 20 -1 37 6 23 10 33 10 45 0 8 -6 18 -9 24 -6 5 3 11 0 14 -6
4 -10 7 -11 18 0 7 6 33 12 58 12 34 0 42 -3 31 -10 -18 -12 -3 -12 25 0 19 7
18 8 -5 14 -14 3 -36 7 -50 9 -14 3 -2 5 26 6 28 0 55 -4 63 -11 10 -11 11
-10 6 5 -6 13 -2 17 16 18 55 2 -38 20 -104 20 -40 0 -65 4 -62 9 4 6 -6 10
-22 9 -25 0 -26 -1 -8 -9 14 -6 1 -9 -45 -10 -36 -2 -71 -2 -79 -1 -7 2 -10
-2 -6 -8 3 -6 2 -11 -3 -11 -6 0 -12 7 -15 14 -4 11 4 16 31 19 20 1 -3 3 -51
3 -86 -1 -88 -1 -82 -23 4 -18 1 -23 -15 -23 -11 0 -20 5 -20 11 0 6 -12 1
-26 -10 -27 -21 -60 -29 -50 -12 4 5 -5 8 -18 7 -18 -2 -22 1 -18 16 2 10 -1
18 -7 18 -8 0 -9 5 -1 19 13 25 13 31 0 31 -5 0 -11 -10 -11 -22z m204 -35
c-7 -2 -19 -2 -25 0 -7 3 -2 5 12 5 14 0 19 -2 13 -5z m244 -9 c-3 -3 -12 -4
-19 -1 -8 3 -5 6 6 6 11 1 17 -2 13 -5z m91 -1 c-10 -2 -28 -2 -40 0 -13 2 -5
4 17 4 22 1 32 -1 23 -4z m-398 -23 c8 -5 11 -10 5 -10 -5 0 -17 5 -25 10 -8
5 -10 10 -5 10 6 0 17 -5 25 -10z m330 6 c0 -2 -9 -6 -20 -9 -11 -3 -20 -1
-20 4 0 5 9 9 20 9 11 0 20 -2 20 -4z"/>
<path d="M480 4320 c0 -5 5 -10 10 -10 6 0 10 5 10 10 0 6 -4 10 -10 10 -5 0
-10 -4 -10 -10z"/>
<path d="M971 4326 c12 -10 59 -15 59 -6 0 5 -14 10 -32 10 -17 0 -29 -2 -27
-4z"/>
<path d="M818 4313 c6 -2 18 -2 25 0 6 3 1 5 -13 5 -14 0 -19 -2 -12 -5z"/>
<path d="M938 4313 c7 -3 16 -2 19 1 4 3 -2 6 -13 5 -11 0 -14 -3 -6 -6z"/>
<path d="M1053 4313 c9 -2 25 -2 35 0 9 3 1 5 -18 5 -19 0 -27 -2 -17 -5z"/>
<path d="M1855 4295 c-15 -74 -16 -80 -5 -65 8 13 10 12 10 -5 1 -12 10 0 24
30 24 51 26 62 7 50 -6 -3 -11 -18 -11 -32 0 -37 -11 -22 -12 16 -1 37 -6 40
-13 6z"/>
<path d="M1118 4304 c10 -5 9 -10 -5 -21 -17 -14 -17 -14 6 -9 13 2 34 1 47
-4 15 -6 24 -6 24 0 0 6 -5 10 -11 10 -5 0 -7 5 -4 10 3 6 0 10 -7 10 -7 0
-24 3 -38 5 -14 3 -19 2 -12 -1z"/>
<path d="M1201 4265 c0 -5 6 -19 14 -30 10 -12 13 -32 10 -55 -4 -27 -3 -30 4
-15 15 32 12 58 -9 85 -11 14 -20 21 -19 15z"/>
<path d="M948 4233 c7 -3 16 -2 19 1 4 3 -2 6 -13 5 -11 0 -14 -3 -6 -6z"/>
<path d="M2116 4194 c-5 -14 -4 -15 9 -4 17 14 19 20 6 20 -5 0 -12 -7 -15
-16z"/>
<path d="M1107 4193 c-11 -10 -8 -35 3 -28 6 4 7 11 4 17 -5 7 -2 8 5 4 7 -5
10 -15 6 -25 -5 -12 -3 -13 6 -4 6 6 9 19 6 27 -7 17 -19 21 -30 9z"/>
<path d="M1247 4184 c-4 -4 -7 -22 -7 -41 0 -27 -5 -36 -27 -44 -26 -10 -27
-12 -8 -19 11 -5 14 -9 8 -9 -7 -1 -13 -6 -13 -12 0 -8 5 -8 15 1 8 7 15 19
15 26 0 8 5 14 10 14 6 0 10 6 10 14 0 8 5 16 12 18 8 3 8 12 2 32 -5 15 -13
24 -17 20z"/>
<path d="M244 4163 c-13 -4 -7 -43 7 -43 5 0 5 -8 2 -17 -5 -15 -4 -16 8 -7 8
6 24 14 37 17 31 7 52 -34 34 -64 -8 -13 -9 -19 -1 -19 6 0 17 -7 25 -15 20
-19 5 -19 -20 0 -11 8 -30 15 -42 15 -25 0 -40 15 -49 51 -8 32 -32 34 -38 2
-5 -28 15 -58 39 -58 9 0 19 -5 21 -12 3 -9 -4 -10 -27 -3 -22 6 -29 6 -24 -3
14 -24 37 -47 48 -47 6 0 0 9 -14 20 -34 26 -16 25 22 -1 32 -23 48 -21 24 4
-14 13 -13 15 3 20 10 2 25 1 32 -4 12 -8 11 -11 -1 -19 -26 -17 -1 -11 36 9
31 17 33 20 16 25 -11 4 -23 13 -26 21 -8 22 5 47 21 41 8 -3 19 -6 24 -6 4 0
6 -7 3 -15 -5 -13 34 -15 316 -15 177 0 329 4 338 9 30 15 72 22 72 11 0 -5
-10 -10 -23 -10 -13 0 -27 -4 -32 -9 -6 -5 -19 -11 -30 -14 -13 -3 -9 -5 12
-6 17 0 34 5 36 12 4 9 8 9 15 -2 7 -10 21 -12 47 -8 48 8 51 11 32 40 -15 23
-14 25 9 37 13 8 24 20 24 28 0 9 -11 3 -31 -16 -28 -28 -38 -31 -85 -29 -38
1 -50 5 -43 14 7 8 -1 10 -33 7 -38 -3 -39 -2 -13 6 20 6 5 7 -50 3 -44 -3
-123 -5 -175 -4 -52 1 -100 -2 -107 -7 -7 -4 20 -6 59 -4 49 3 69 1 64 -6 -8
-13 -254 -14 -262 0 -3 4 -15 6 -27 3 -12 -3 -46 -1 -74 3 -37 6 -53 6 -54 -2
0 -6 -4 -1 -9 11 -5 12 -27 31 -49 43 -41 21 -68 27 -41 10 10 -6 11 -10 3
-10 -7 0 -13 -7 -13 -16 0 -18 -22 -14 -28 6 -3 7 0 10 7 6 6 -4 11 -3 11 3 0
13 -12 19 -26 14z m116 -51 c-5 -2 -7 -9 -4 -15 4 -7 -5 0 -18 15 -14 15 -29
24 -33 20 -5 -4 -5 -1 -1 6 6 10 14 8 37 -5 16 -10 25 -19 19 -21z m547 -18
c-3 -3 -12 -4 -19 -1 -8 3 -5 6 6 6 11 1 17 -2 13 -5z m93 -27 c8 -3 -95 -5
-230 -4 l-245 2 218 2 c150 2 217 7 217 14 0 8 4 8 13 2 6 -6 19 -13 27 -16z
m-760 -18 c0 -11 -4 -17 -10 -14 -5 3 -10 15 -10 26 0 11 5 17 10 14 6 -3 10
-15 10 -26z m277 15 c-3 -3 -12 -4 -19 -1 -8 3 -5 6 6 6 11 1 17 -2 13 -5z
m663 -13 c0 -5 -8 -11 -18 -13 -11 -3 -19 0 -19 8 0 8 9 14 19 14 10 0 18 -4
18 -9z"/>
<path d="M3125 4130 c3 -5 8 -10 11 -10 2 0 4 5 4 10 0 6 -5 10 -11 10 -5 0
-7 -4 -4 -10z"/>
<path d="M1324 4048 c-3 -4 3 -5 13 -1 16 6 16 5 4 -10 -7 -9 -17 -14 -22 -11
-5 3 -9 0 -9 -5 0 -16 7 -14 45 12 l35 24 -31 0 c-16 0 -32 -4 -35 -9z"/>
<path d="M1485 4050 c3 -5 11 -10 16 -10 6 0 7 5 4 10 -3 6 -11 10 -16 10 -6
0 -7 -4 -4 -10z"/>
<path d="M663 4023 c15 -2 39 -2 55 0 15 2 2 4 -28 4 -30 0 -43 -2 -27 -4z"/>
<path d="M838 4023 c18 -2 45 -2 60 0 15 2 0 4 -33 4 -33 0 -45 -2 -27 -4z"/>
<path d="M973 4023 c9 -2 25 -2 35 0 9 3 1 5 -18 5 -19 0 -27 -2 -17 -5z"/>
<path d="M483 4003 c9 -2 23 -2 30 0 6 3 -1 5 -18 5 -16 0 -22 -2 -12 -5z"/>
<path d="M1103 4003 c15 -2 37 -2 50 0 12 2 0 4 -28 4 -27 0 -38 -2 -22 -4z"/>
<path d="M1238 4003 c7 -3 16 -2 19 1 4 3 -2 6 -13 5 -11 0 -14 -3 -6 -6z"/>
<path d="M1438 3973 c-20 -5 -23 -18 -7 -29 6 -3 18 0 26 9 17 16 7 26 -19 20z"/>
<path d="M756 3900 c5 -4 29 -10 53 -13 24 -3 40 -2 35 3 -5 4 -29 10 -53 13
-24 3 -40 2 -35 -3z"/>
<path d="M1490 3890 c-13 -8 -12 -10 3 -10 9 0 17 5 17 10 0 12 -1 12 -20 0z"/>
<path d="M867 3883 c-3 -5 37 -8 89 -8 52 0 94 3 94 8 0 4 -40 7 -89 7 -50 0
-92 -3 -94 -7z"/>
<path d="M661 3851 c-1 -19 38 -81 51 -81 6 0 4 8 -5 18 -10 10 -17 24 -17 30
0 7 -4 12 -9 12 -5 0 -12 8 -14 18 -3 10 -5 11 -6 3z"/>
<path d="M1420 3651 c0 -6 4 -13 10 -16 6 -3 7 1 4 9 -7 18 -14 21 -14 7z"/>
<path d="M1410 3616 c0 -11 5 -14 12 -10 8 5 9 2 5 -10 -4 -10 -7 -22 -7 -27
0 -5 -5 -8 -12 -6 -6 1 -13 -7 -15 -18 l-3 -20 9 20 c9 19 10 19 10 -2 1 -14
-5 -23 -14 -23 -8 0 -15 -6 -15 -14 0 -8 -3 -23 -6 -33 -5 -15 -4 -15 5 -3 8
12 11 7 11 -22 0 -20 -5 -38 -12 -41 -10 -3 -9 -8 2 -22 11 -13 11 -16 2 -11
-10 6 -13 3 -10 -8 5 -25 21 -22 35 5 7 13 13 18 13 11 0 -7 5 -10 11 -6 6 3
9 19 5 35 -4 23 -2 29 12 29 14 0 15 2 2 9 -8 6 -18 7 -24 4 -5 -4 -6 -1 -1 7
4 6 9 43 11 80 3 51 0 71 -11 80 -12 10 -15 9 -15 -4z m17 -88 c-3 -8 -6 -5
-6 6 -1 11 2 17 5 13 3 -3 4 -12 1 -19z m-7 -52 c0 -3 -4 -8 -10 -11 -5 -3
-10 -1 -10 4 0 6 5 11 10 11 6 0 10 -2 10 -4z m-13 -58 c-3 -7 -5 -2 -5 12 0
14 2 19 5 13 2 -7 2 -19 0 -25z"/>
<path d="M1547 3493 c-4 -3 -6 -20 -6 -37 1 -17 3 -23 6 -14 2 10 10 15 19 11
10 -4 12 0 7 13 -5 13 -3 15 8 9 12 -8 12 -6 0 8 -14 18 -24 21 -34 10z"/>
<path d="M1555 3421 c-3 -12 -11 -19 -16 -16 -12 8 -11 -37 2 -55 9 -13 10
-13 6 0 -2 8 2 30 9 49 8 19 12 36 10 38 -2 3 -7 -5 -11 -16z"/>
<path d="M1767 3284 c-4 -4 -7 -17 -7 -28 1 -19 1 -20 11 -3 11 19 8 43 -4 31z"/>
<path d="M1341 3254 c0 -11 3 -14 6 -6 3 7 2 16 -1 19 -3 4 -6 -2 -5 -13z"/>
<path d="M5203 3153 c-7 -3 -13 -15 -13 -28 0 -13 6 -25 13 -28 17 -6 47 11
47 28 0 17 -30 34 -47 28z"/>
<path d="M1352 3080 c0 -19 2 -27 5 -17 2 9 2 25 0 35 -3 9 -5 1 -5 -18z"/>
<path d="M5233 2723 c-19 -7 -16 -50 3 -57 19 -7 44 10 44 30 0 16 -30 33 -47
27z"/>
<path d="M3291 2650 c0 -20 26 -54 32 -43 3 5 -3 20 -14 33 -12 17 -19 20 -18
10z"/>
<path d="M1366 2594 c3 -64 14 -68 14 -6 0 29 -4 52 -8 52 -5 0 -7 -21 -6 -46z"/>
<path d="M3290 2575 c-7 -9 -11 -17 -9 -20 3 -2 10 5 17 15 14 24 10 26 -8 5z"/>
<path d="M2760 2270 c8 -5 20 -10 25 -10 6 0 3 5 -5 10 -8 5 -19 10 -25 10 -5
0 -3 -5 5 -10z"/>
<path d="M2678 2263 c7 -3 16 -2 19 1 4 3 -2 6 -13 5 -11 0 -14 -3 -6 -6z"/>
<path d="M1660 1984 c0 -8 5 -12 10 -9 6 4 8 11 5 16 -9 14 -15 11 -15 -7z"/>
<path d="M2170 1860 c-9 -6 -10 -10 -3 -10 6 0 15 5 18 10 8 12 4 12 -15 0z"/>
<path d="M3364 1764 c-18 -14 -18 -15 4 -4 12 6 22 13 22 15 0 8 -5 6 -26 -11z"/>
<path d="M3261 1716 c-19 -11 -21 -14 -7 -19 9 -4 16 -2 16 3 0 6 6 10 14 10
8 0 18 5 21 10 9 14 -15 12 -44 -4z"/>
<path d="M3222 1686 c7 -8 17 -12 22 -9 4 3 2 9 -5 14 -22 13 -31 11 -17 -5z"/>
<path d="M3130 1650 c-6 -11 -8 -20 -4 -20 3 0 1 -7 -6 -15 -7 -8 -17 -15 -23
-15 -6 0 -2 7 9 15 24 18 7 19 -25 1 l-23 -13 23 -6 c16 -4 40 4 81 29 54 33
82 57 39 34 -13 -7 -22 -7 -26 0 -10 17 -34 11 -45 -10z m27 -16 c-3 -3 -12
-4 -19 -1 -8 3 -5 6 6 6 11 1 17 -2 13 -5z"/>
<path d="M3080 1640 c-8 -5 -10 -10 -5 -10 6 0 17 5 25 10 8 5 11 10 5 10 -5
0 -17 -5 -25 -10z"/>
<path d="M3715 1641 c-61 -17 -87 -32 -134 -76 -160 -150 -131 -435 55 -539
80 -45 208 -52 287 -15 25 11 27 17 28 73 1 34 2 73 3 89 1 15 1 27 -1 27 -1
0 -22 -14 -47 -31 -75 -53 -172 -39 -225 31 -28 38 -43 102 -35 150 23 140
179 196 282 100 11 -10 21 -17 23 -15 2 2 3 43 1 92 l-3 89 -42 13 c-53 17
-152 23 -192 12z"/>
<path d="M3026 1621 c-11 -4 -15 -10 -10 -13 5 -4 18 0 29 8 20 15 12 17 -19
5z"/>
<path d="M6160 1315 l0 -315 85 0 85 0 0 130 0 130 115 0 115 0 0 -130 0 -130
85 0 85 0 0 315 0 315 -85 0 -85 0 0 -120 0 -120 -115 0 -115 0 0 120 0 120
-85 0 -85 0 0 -315z"/>
<path d="M4233 1541 c-200 -52 -278 -300 -141 -455 88 -101 220 -125 339 -63
104 53 149 129 149 252 0 103 -59 197 -153 246 -42 22 -145 33 -194 20z m147
-139 c55 -40 78 -148 46 -210 -54 -103 -190 -109 -243 -10 -24 46 -23 134 2
176 40 67 134 88 195 44z"/>
<path d="M7043 1541 c-130 -33 -224 -168 -209 -298 23 -198 230 -312 405 -224
98 50 152 136 152 243 1 118 -54 208 -159 262 -38 19 -143 29 -189 17z m143
-136 c91 -59 84 -234 -12 -280 -90 -42 -179 10 -199 117 -12 65 32 153 90 179
28 12 91 4 121 -16z"/>
<path d="M8180 1543 c-35 -7 -87 -48 -105 -83 -8 -16 -15 -54 -15 -86 0 -50 3
-59 33 -88 20 -21 57 -41 100 -55 76 -26 97 -42 97 -76 0 -62 -93 -70 -161
-15 l-38 30 -30 -52 c-34 -61 -33 -65 42 -103 92 -46 222 -27 275 39 30 39 45
92 39 142 -8 78 -36 102 -170 149 -51 18 -71 52 -47 80 18 21 79 18 118 -5
l33 -20 19 46 c11 25 20 49 20 53 0 29 -140 59 -210 44z"/>
<path d="M4680 1348 c0 -216 8 -258 54 -304 40 -40 89 -54 187 -54 60 0 85 5
125 25 85 42 88 55 92 308 l3 218 -68 -3 -68 -3 3 -35 c1 -19 -1 -104 -4 -189
-6 -144 -8 -156 -30 -178 -29 -29 -91 -31 -125 -4 -24 19 -24 23 -27 215 l-3
196 -70 0 -69 0 0 -192z"/>
<path d="M5260 1271 l0 -271 65 0 65 0 0 100 c0 55 3 100 8 100 4 0 32 -45 62
-100 l55 -99 79 -1 c92 0 92 -8 4 122 -34 50 -58 93 -53 95 37 12 78 49 92 80
20 49 13 135 -14 171 -42 56 -76 67 -225 70 l-138 4 0 -271z m237 133 c17 -23
17 -88 0 -102 -7 -6 -33 -13 -58 -14 l-44 -3 -3 59 c-4 83 0 90 50 83 23 -3
48 -14 55 -23z"/>
<path d="M5700 1475 l0 -65 55 0 55 0 1 -197 c1 -109 1 -201 0 -205 0 -5 33
-8 74 -8 l75 0 0 205 0 204 57 3 57 3 2 45 c3 85 16 80 -192 80 l-184 0 0 -65z"/>
<path d="M7490 1348 c0 -106 5 -210 10 -230 26 -92 105 -133 244 -126 99 5
153 31 186 90 21 37 22 53 24 246 l1 207 -67 3 -68 3 -1 -148 c0 -183 -9 -241
-39 -265 -29 -24 -91 -23 -121 1 -24 19 -24 23 -27 215 l-3 196 -70 0 -69 0 0
-192z"/>
<path d="M8510 1523 c0 -10 -1 -130 -1 -268 l-1 -250 161 -3 161 -2 0 60 0 60
-95 0 -95 0 0 45 0 44 88 3 87 3 0 55 0 55 -87 3 -88 3 0 44 0 45 95 0 95 0 0
60 0 60 -160 0 c-146 0 -160 -2 -160 -17z"/>
<path d="M2645 1443 c11 -3 25 -10 30 -15 7 -8 5 -9 -5 -6 -8 3 -24 -3 -34
-13 -19 -19 -19 -19 6 -19 33 0 63 31 46 48 -7 7 -23 11 -37 11 -21 -1 -22 -2
-6 -6z"/>
<path d="M2041 1436 c2 -2 15 -9 29 -15 24 -11 24 -11 6 3 -16 13 -49 24 -35
12z"/>
<path d="M2547 1393 c-9 -2 -15 -9 -12 -14 4 -5 -4 -9 -17 -9 -13 0 -30 -5
-38 -11 -15 -10 33 -4 89 11 25 6 42 30 21 30 -6 0 -8 -4 -5 -10 3 -5 -1 -10
-10 -10 -9 0 -13 5 -10 10 3 6 5 9 3 9 -2 -1 -11 -3 -21 -6z"/>
<path d="M2195 1370 c27 -12 43 -12 25 0 -8 5 -22 9 -30 9 -10 0 -8 -3 5 -9z"/>
<path d="M2248 1363 c6 -2 18 -2 25 0 6 3 1 5 -13 5 -14 0 -19 -2 -12 -5z"/>
<path d="M2337 1353 c18 -2 50 -2 70 0 21 2 7 4 -32 4 -38 0 -55 -2 -38 -4z"/>
</g>
</svg>
